<?xml version="1.0" encoding="UTF-8"?>
<!DOCTYPE svg PUBLIC "-//W3C//DTD SVG 1.1//EN" "http://www.w3.org/Graphics/SVG/1.1/DTD/svg11.dtd">
<!-- Creator: CorelDRAW (Versión de evaluación) -->
<svg xmlns="http://www.w3.org/2000/svg" xml:space="preserve" width="11.8533mm" height="7.7354mm" version="1.1" style="shape-rendering:geometricPrecision; text-rendering:geometricPrecision; image-rendering:optimizeQuality; fill-rule:evenodd; clip-rule:evenodd"
viewBox="0 0 181.15 118.22"
 xmlns:xlink="http://www.w3.org/1999/xlink"
 xmlns:xodm="http://www.corel.com/coreldraw/odm/2003">
 <defs>
  <style type="text/css">
   <![CDATA[
    .fil7 {fill:#029CD0}
    .fil11 {fill:#152C41}
    .fil4 {fill:#255E6E}
    .fil3 {fill:#40C0ED}
    .fil5 {fill:#527786}
    .fil2 {fill:#58D8F3}
    .fil6 {fill:#5D95A6}
    .fil0 {fill:#A6E0EF}
    .fil1 {fill:#E8F5F6}
    .fil10 {fill:#F29D7F}
    .fil9 {fill:#F4B69F}
    .fil8 {fill:#FDD17A}
    .fil12 {fill:white}
   ]]>
  </style>
 </defs>
 <g id="Capa_x0020_1">
  <metadata id="CorelCorpID_0Corel-Layer"/>
  <g id="_384612792">
   <path class="fil0" d="M87.33 71.99c-0.81,1.4 -3.29,7.15 -4.18,7.91l0.07 1.2c8.96,3.89 10.96,7.04 20.86,10.65 0.55,0.2 0.99,0.3 1.46,0.63 1.27,0.91 0.58,0.09 0.83,1.25 2.77,0.83 2.17,0.36 4.87,0.31 2.35,-0.05 1.12,0.17 2.25,0.61l1.52 0.53c2.17,1.02 -1.4,4.09 -4.68,5.29 -1.76,0.64 -2.84,0.36 -4.52,0.72 -1.8,0.38 -1.88,1.38 -3.71,0.33 -2.79,-2.16 -8.7,-4.22 -12.59,-5.82 -5.86,-2.42 -7.37,-4.55 -13.19,-1.18 -7.05,4.09 -11.7,8.22 -19.16,7.97 -2.56,-0.09 -4.69,-1.87 -5.55,-3.46 -1.33,0.07 -1.88,-0.07 -2.67,-0.86 -0.49,-0.48 -1.18,-1.38 -1.6,-1.88 -2.65,-3.2 -2.32,-14.22 -2.99,-15.65 -0.76,-1.39 -0.58,-6.73 0.52,-8.92 1.05,-2.1 2.92,-3.63 4.67,-5.25 -1.32,-0.38 -2.72,-1.55 -3.45,-2.24 -2.36,0.19 -4.14,0.94 -6.24,1.11 0.66,2.85 3.18,6.9 2.69,10.03 -1.16,1.36 -1.99,1.63 -3.1,3.76l-6.53 13.92c1.47,1.88 1.89,1.96 3.55,3.37 2.45,2.08 2.21,0.66 4.83,1.66l-0.15 1.44c-1.67,0.66 -9.85,0.66 -12.4,0.6 -3.79,-0.1 -2.54,-0.92 -1.81,-3.74 0.94,-3.66 -1.28,-3.45 2.39,-4.14 -0.95,-1.19 -0.37,-1.98 0.06,-3.8 2.91,-12.26 7.33,-12.84 5.5,-16.03 -0.62,-1.08 -3.02,-4.5 -4.04,-4.87l-0.44 0.22c0.32,3.17 0.91,6 0.53,9.38 -0.32,2.85 -2.63,3.68 -5.09,4.68 -10.24,4.16 -5.32,2.38 -11.91,7.42 -0.11,2.34 -0.41,4.04 0.06,6.44 0.42,2.13 2.17,3.31 0.43,4.55 -2.46,2 -4.91,-2.32 -5.76,-4.06 -0.67,-1.38 -3,-6.26 -2.96,-7.49 0.77,-0.45 4.4,-2.31 5.22,-2.6 0.65,-0.78 2.16,-1.91 2.96,-2.73 1.06,-1.07 1.82,-1.96 2.72,-2.83l6.66 -4.46c0.18,-1.59 -0.32,-4.25 -1.07,-5.36 -1.54,-0.03 -5.62,1.93 -7.16,2.7 -4.33,2.18 -9.02,4.77 -12.1,8.68 -1.42,1.81 -2.99,4.34 -2.94,7.48 0.09,5.47 5.02,9.79 8.34,12.13 12.08,8.49 33.09,12.55 47.43,14.56 15.41,2.16 24.53,2.06 39.5,2.06 25.27,0 64.55,-4.9 81.11,-19.33 5.18,-4.51 6.37,-10.76 2.36,-16.35 -3.81,-5.31 -12.74,-9.7 -19.1,-12.07 -1.65,-0.61 -6.39,-2.35 -8.01,-2.47 -0.21,1.87 -0.61,6.51 0.07,8.43 1.4,3.95 1.14,3.87 1.05,8.56 -0.05,2.94 -0.23,4.38 -0.57,7.12l-0.82 7.06 0.61 1.83c-5.19,3.39 -3.41,2.22 -9.24,2.03 0.47,-1.14 1.06,-1.34 2.18,-2.71 1.23,-1.5 0.67,-1.99 2.07,-2.91 -0.11,-1.92 0.62,-4.88 0.76,-6.96 0.84,-11.94 -1.45,-8.68 -3.37,-18.56 -0.77,-3.98 -0.45,-2.92 -1.25,-3.16 -4.73,10.11 -2.55,5.7 -2.82,14.52 -0.08,2.7 -0.55,5.44 -0.84,8.19 -0.17,1.61 -0.74,2.76 -0.86,3.64 -0.28,2.07 1.72,3.07 -0.75,3.42 -0.49,0.07 -0.82,0.01 -1.3,-0.08 -4.27,-0.79 -3.26,-2.63 -2.98,-4.25 0.56,-3.23 0.67,-7.08 0.74,-10.24 0.09,-4.31 -1.16,-6.42 -0.93,-10.04 0.21,-3.24 0.65,-6.91 0.69,-10.04l-6 -0.91c-0.08,-0.01 -0.9,-0.15 -0.91,-0.15 -0.1,-0.03 -0.19,-0.05 -0.28,-0.08l-0.52 -0.24c-0.06,-0.03 -0.18,-0.08 -0.25,-0.14 -0.82,0.42 -0.5,1.48 -0.48,3.52 0.06,5.82 0.25,24.25 -0.15,27.34 -1.15,2.31 -2.64,5.01 -4.07,7.23 -1.06,-1.68 -3.3,-4.73 -4.15,-6.6 -0.85,-1.87 -0.02,-26.04 -0.43,-31.52l-6.8 0.03 3.71 9.67 -26.39 0z"/>
   <path class="fil1" d="M43.52 17.11l3.51 0.25 0.13 -3.89 17.64 -0.01 15.93 0.06 43.64 -0.02 12.13 0.01 -0.15 15.97c5.64,1.67 3.01,3.8 8.82,0.77 1.71,-0.9 2.44,-1.39 3.97,0.48 4.32,5.28 -1.06,5.75 -3.37,6.33 -3.02,0.76 -2.08,0.68 -5.12,0.41 -0.05,0.06 -0.13,0.09 -0.16,0.2l-0.33 0.38c-0.96,0.91 -2.33,1.29 -3.6,1.54 0.04,2.31 -0,4.62 0.01,6.92 0.01,2.58 -0.55,3.97 0.17,6l0.39 -0.82 2.16 0.16c2.82,0.22 5.49,0.27 8.27,0.56 1.07,0.11 2.37,0.28 3.57,0.58 2.4,0.59 1.62,0.6 2.34,2.02 0.74,-7.17 0.81,-10.45 3.07,-17.21 1.92,-5.73 4.04,-10.79 -1.66,-14.85 -0.81,0.74 -1.01,0.65 -2.16,1.07 -2.88,1.05 -4.48,2.62 -5.92,2.74l0.61 -2.76c-0.75,0.5 -2.87,0.81 -3.99,1.42l-2.49 2.01c-0.24,-2.82 -0.04,-5.48 -0.03,-8.03 0.02,-9.69 -0.69,-5.83 -0.94,-8.21 0.37,-2.61 2.01,-3.46 -0.24,-6.35 -1.42,-1.82 -2.98,-2.11 -6,-2.09l-80.36 0.01c-10.87,-0 -10.62,1.79 -10.61,9.9 0.01,4.06 -0.42,3.92 0.76,4.46z"/>
   <path class="fil2" d="M72.42 29.62c1.75,0.01 3.98,-0.26 5.26,0.56 1.47,0.94 1.36,2.38 0.09,3.81 0.67,0.62 1.51,0.83 1.34,2.45 -0.33,3.09 -5.56,2.26 -8.92,2.26l0.05 -7.42c-1.28,1.36 -3.24,3.96 -5.1,5.2l0.58 1.25c-0.3,2.61 0.47,5.57 -0.42,7.55 -1.52,0.68 -2.01,-0.24 -4.42,0.06 -3.73,0.47 -12.58,3.17 -13.4,1.6l-0.35 4.28c5.7,-2.58 2.65,-2.69 6.04,-2.56 2.3,0.09 1.84,0.46 3.06,1.21 1.75,1.08 1.93,1.07 1.52,3.54 0.96,2.31 1.28,1.46 2.43,2.97l56.39 0.08 0.27 0.75 0.09 -6.54c-1.28,-0.72 -7.27,-0.39 -8.92,-0.39 -2.99,0 -5.93,-0.13 -8.97,0 -3.45,0.15 -12.56,0.2 -15.72,0.03 -5.65,-0.31 -11.93,-0.11 -17.71,-0.11 0.04,-2.01 0.31,-1.56 2.63,-1.52l14.6 0.02c5.54,-0.06 10.85,0.24 15.56,-0.06l0.74 -0.7c0.38,-0.37 0.46,-0.48 0.85,-0.88 1.4,-1.43 0.97,-1.27 1.87,-1.6 -2.54,-0.32 -1.08,0.63 -1.61,-1.26 1.23,-0.08 1.42,-0.02 2.3,0.57l6.92 -6.17c-3.23,0.24 -2.35,0.4 -3.86,-1.41 -0.81,-0.96 -1.4,-1.82 -2.17,-2.31l-0.05 3.81 -2.88 0 0.05 -9.1 2.88 0.13 5 -5.39c0.79,-0.02 0.15,0.22 -0.4,-0.32l-0.64 -0.72c2.69,0.09 1.77,0.61 3.38,-1.12 0.69,-0.74 1.33,-1.55 2.16,-2.02 -8.43,0 -16.86,0 -25.28,0 -6.42,0 -5.85,-0.81 -9.04,3.07l-3.17 3.09c-1.1,1.11 -2.26,1.97 -3.03,3.27z"/>
   <path class="fil3" d="M47.03 17.37c2.31,0.71 2.76,1.2 3.53,3.44 0.99,2.54 -0.24,2.88 1.55,4.63 0.05,-0.06 0.14,-0.25 0.16,-0.19 0.02,0.06 0.13,-0.15 0.14,-0.17 0.03,-0.04 0.21,-0.29 0.27,-0.39l3.24 -0.13 0.08 3.72 -3.66 -0.02c-0,-0.96 0.17,-1.07 -0.43,-2.03 -1.47,0.95 -0.24,0.63 -1.87,1.93 0.42,0.82 0.63,1.4 0.14,2.58 -0.65,1.57 -1.31,0.71 -2.89,0.63 0.28,1.36 0.12,1.71 0.13,3.01 0,1.85 0.17,1.09 0.79,2.4 3.61,1.35 2.15,2.65 8.87,3.95 1.28,0.25 4.57,1.11 5.52,0.84 2.78,-0.79 0.65,-3.22 3.14,-3.85l-0.58 -1.25c1.85,-1.24 3.82,-3.84 5.1,-5.2l0.1 -1.66 2.08 -0.01c0.77,-1.3 1.93,-2.16 3.03,-3.27l3.17 -3.09c3.2,-3.88 2.62,-3.07 9.04,-3.07 8.43,0 16.86,0 25.28,0 -0.83,0.46 -1.47,1.28 -2.16,2.02 -1.61,1.72 -0.69,1.21 -3.38,1.12l0.64 0.72c0.54,0.54 1.19,0.3 0.4,0.32l-5 5.39c0.22,0.93 0.37,1.13 1.13,1.94 0.73,0.79 1.14,1.2 1.78,1.7l0.13 -3.67 1.95 -0.1c0.81,-1.36 2.05,-2.28 3.2,-3.44 0.71,-0.71 0.99,-0.99 1.79,-1.66 4.39,-3.64 0.98,-4.38 8.87,-4.32 1.55,0.01 2.26,0.17 3.21,-0.35l0.18 -0.59c-0.17,-0.3 -0.07,-0.63 -1.39,-0.63 -0.55,0 -0.75,0.02 -1.39,0.02 -3.68,0.01 -1.99,0.53 -2.68,-0.52 1.34,-0.71 3.64,-3.18 4.16,-4.61l-43.64 0.02c-0.66,1.16 -2.45,2.94 -3.55,3.83 -1.22,0.99 -6.3,0.52 -8.64,0.58 -0.56,0.02 -1.29,-0.01 -1.75,-0.02 -0.37,-0.01 -1,0.16 -1,0.16 -0.84,0.69 -0.47,-0.87 -0.63,1.44 1.45,1.19 6.61,0.68 9.34,0.68 -0.87,0.48 -1.44,1.26 -2.16,2.02 -1.33,1.41 -0.92,1.15 -3.38,1.11 1.46,1.85 1.77,0.81 1.12,1.12l-4.24 4.07c-0.3,0.68 0.72,0.34 -1.04,-1.04 0.08,2.4 0.64,1.73 -0.75,3.05 -0.65,0.62 -1.26,1.04 -1.69,1.8l0 -14.19 -1.55 -0.01c0.52,-1.49 3.12,-3 3.98,-4.65l-17.64 0.01 -0.13 3.89z"/>
   <path class="fil4" d="M75.48 82.12l-0.2 0.07c-0.2,0.62 -0.07,0.71 -1.48,1.4l-4.96 2.35c-2.22,1.06 -4.41,2.21 -6.65,3.33 -1.13,0.57 -6.08,2.53 -6.7,3.34l-3.88 6.3c0.86,1.6 2.99,3.38 5.55,3.46 7.46,0.25 12.11,-3.88 19.16,-7.97 5.81,-3.37 7.33,-1.23 13.19,1.18 3.89,1.6 9.79,3.66 12.59,5.82l3.74 -7.25c0.4,-0.5 0.03,-0.14 0.53,-0.55 -0.25,-1.16 0.44,-0.34 -0.83,-1.25 -0.47,-0.33 -0.91,-0.43 -1.46,-0.63 -9.9,-3.61 -11.9,-6.75 -20.86,-10.65l-0.07 -1.2 -7.66 2.22z"/>
   <path class="fil2" d="M125.09 42.17l2.05 1.23c0,3.44 0.11,2.91 -1.04,3.43 -1.25,-0.71 -0.05,0.36 -0.57,-0.73 -1.05,-2.2 0.44,1.51 -0.2,-0.61 -0.04,-0.12 -0.11,-0.57 -0.13,-0.66 -0.02,-0.09 -0.06,-0.15 -0.07,-0.33 -0.01,-0.18 -0.02,-0.23 -0.07,-0.33l-8.19 0 0 1.84 2.65 0.07 0 47.39 5.94 -0.3c0.4,-3.08 0.21,-21.52 0.15,-27.34 -0.02,-2.04 -0.33,-3.1 0.48,-3.52l7.97 0.14 0 0.68 0.66 -3.07 -9.21 -0.03c0.25,-3.88 -1,-3.66 2.99,-3.6 1.92,0.03 5.01,0.17 6.8,-0.05 0.64,-0.78 1.02,-2.87 1.43,-3.87 -0.73,-2.03 -0.16,-3.42 -0.17,-6 -0.01,-2.31 0.03,-4.62 -0.01,-6.92 -2.45,0.85 -8.76,2.42 -11.47,2.57z"/>
   <path class="fil5" d="M61 60.15c0.11,2.65 -1.2,0.37 -1.99,2.22l14.54 -0.08 -3.73 9.67c2.25,0.03 8.71,-0.55 10.1,0.32l0.38 -0.46c2.34,-3.45 -0.81,-4.32 9.31,-5.08 -0.83,1.88 -1.85,3.32 -2.28,5.26l26.39 0 -3.71 -9.67 6.8 -0.03c-0.03,-1.26 0.19,-1.62 0.08,-2.89 -0.41,1.15 0.58,0.54 -1.49,0.77l-26.37 -0.03c-9.28,0.02 -18.79,0.2 -28.05,0.01z"/>
   <path class="fil0" d="M20.12 47.03c2.11,2.63 2.58,4.5 6.72,8 0.93,0.78 2.2,1.3 2.89,2.38 3.05,0.78 4.28,-1.8 5.98,-3.26 0.43,-0.32 1.81,-1.97 2.28,-2.58l2.22 -2.97c0,3.4 -0.28,11.13 4.47,12.47 -0.47,-2.73 -1.34,-2.96 -0.3,-4.83 0.04,-0.07 0.11,-0.14 0.15,-0.2 0.66,-1.17 0.22,-0.91 0.59,-2.62 1.88,-1.04 1.46,0.43 2.02,-2.19l0.35 -4.28c-2.8,-0.66 -5.18,-3.92 -6.34,-5.96 1.69,-1.61 2.5,-3.53 5.24,-1.65 0.42,-1.14 0.03,-0.43 0.86,-1.37 0.97,-1.09 0.39,0.12 0.95,-1.17 -0.62,-1.31 -0.78,-0.55 -0.79,-2.4 -0,-1.29 0.15,-1.65 -0.13,-3.01 -1.28,0.68 -1.22,1.03 -2.22,1.63 -0.08,1.94 0.51,1.97 -0.69,3.1 -1.53,-0.27 -0.65,0.04 -1.25,-1.15 -1.9,-3.76 -1.05,0.09 -2.13,-4.45 -1.49,-0.36 -1.87,-0.49 -2.85,-1.24 -4.79,-0.24 -4.91,9.63 -18.01,16.56l0 1.2z"/>
   <path class="fil6" d="M40.21 16.9c0.16,0.08 0.77,0.47 0.79,0.48 1.2,0.59 -1.11,-0.1 1.27,0.52l1.25 -0.79c-1.18,-0.54 -0.75,-0.4 -0.76,-4.46 -0.01,-8.11 -0.26,-9.9 10.61,-9.9l80.36 -0.01c3.02,-0.02 4.58,0.27 6,2.09 2.25,2.89 0.61,3.74 0.24,6.35 0.25,2.39 0.96,-1.47 0.94,8.21 -0.01,2.55 -0.2,5.21 0.03,8.03l2.49 -2.01c0,-1.51 -0.25,-3.8 0.26,-4.88l-0.57 -0.75c-0.04,-0.05 -0.11,-0.13 -0.16,-0.19l-0.49 -0.88c-0.35,-1.46 -0.05,0.72 0.12,-1.69 0.1,-1.52 -0.49,-2.12 -0.45,-3.16 0,-0.08 0.05,-0.28 0.06,-0.35 0,-0.03 0.05,-0.14 0.05,-0.16 0.28,-1.12 -0.52,0.1 0.58,-0.66 0.24,-0.17 0.94,-0.51 0.94,-0.51 2.55,-1.05 1.21,3.18 3.82,4.66l0.22 -0.58c0.49,-1.61 0.18,-1.88 1.51,-2.39 0.42,0.42 0.28,0.09 0.62,0.79 0.26,0.54 0.25,0.81 0.47,1.3 0.15,0.33 1.05,1.63 1.34,2.04l1.73 -0.18c-0.36,-4.63 1.71,-7.33 -0.61,-9.14 -0.89,-0.7 -1.13,-0.35 -2.01,-0.76l-0.44 -0.25c-3.49,-2.27 -3.56,-0.57 -6.99,-0.29 -0.44,-0.92 -0.44,-1.83 -0.93,-2.88 -0.33,-0.71 -1.06,-1.74 -1.56,-2.25 -1.18,-1.19 -3.62,-2.05 -5.81,-2.15 -5.07,-0.23 -10.8,0.01 -15.94,0.01 -8.38,0 -68.11,-0.38 -71.4,0.3 -8.65,1.8 -7.57,10.08 -7.57,16.49z"/>
   <path class="fil3" d="M143.12 68.73c0.8,0.24 0.48,-0.82 1.25,3.16 1.92,9.88 4.21,6.62 3.37,18.56 -0.15,2.08 -0.87,5.03 -0.76,6.96 1.68,-0.18 3.24,0.85 4.39,1.76l0.82 -7.06c0.34,-2.74 0.52,-4.18 0.57,-7.12 0.08,-4.69 0.35,-4.61 -1.05,-8.56 -0.68,-1.92 -0.29,-6.56 -0.07,-8.43 0.26,-2.4 0.15,-4.64 0.83,-6.54 0.96,-2.72 1,-2.63 1,-6.43 -0.73,-1.42 0.06,-1.44 -2.34,-2.02 -1.19,-0.29 -2.49,-0.46 -3.57,-0.58 -2.78,-0.29 -5.45,-0.34 -8.27,-0.56 -0.58,3.74 0.26,5.57 1.62,8.59 0.72,1.6 3,6.43 2.22,8.28z"/>
   <path class="fil5" d="M22.2 70.6c0.75,1.11 1.25,3.77 1.07,5.36l-6.66 4.46c-0.9,0.87 -1.66,1.76 -2.72,2.83 -0.81,0.81 -2.31,1.95 -2.96,2.73 0.8,1.34 1.78,2.29 3.02,3.15 6.59,-5.03 1.66,-3.26 11.91,-7.42 2.46,-1 4.77,-1.83 5.09,-4.68 0.38,-3.38 -0.21,-6.21 -0.53,-9.38l0.09 -0.69 -0.35 -0.74 -0.97 -4.91c-0.3,-1.5 -0.27,-1.2 -0.1,-2.36 0.17,-1.15 0.21,-1.3 0.63,-1.55 -0.69,-1.08 -1.96,-1.6 -2.89,-2.38 -4.14,-3.5 -4.61,-5.37 -6.72,-8 -1.3,0.99 -2.16,3.55 -2.38,5.08 -0.69,4.91 0.53,8.14 2.23,12.57 0.83,2.16 1.47,3.87 2.23,5.93z"/>
   <path class="fil7" d="M136.74 52.52c-0.41,1 -0.79,3.09 -1.43,3.87l-0.58 3.68 -0.66 3.07 0 0.69c-0.03,3.13 -0.48,6.81 -0.69,10.04 -0.24,3.61 1.02,5.72 0.93,10.04 -0.07,3.16 -0.18,7.01 -0.74,10.24 -0.28,1.62 -1.29,3.46 2.98,4.25 0.49,0.09 0.81,0.15 1.3,0.08 2.47,-0.35 0.47,-1.35 0.75,-3.42 0.12,-0.88 0.69,-2.03 0.86,-3.64 0.29,-2.75 0.76,-5.49 0.84,-8.19 0.27,-8.82 -1.91,-4.41 2.82,-14.52 0.78,-1.85 -1.5,-6.68 -2.22,-8.28 -1.36,-3.02 -2.2,-4.85 -1.62,-8.59l-2.16 -0.16 -0.39 0.82z"/>
   <path class="fil3" d="M117.44 29.98c4.52,2.15 3.11,6.16 1.66,7.47 -1.17,1.05 -2.8,1.29 -4.77,1.31 -3.22,0.03 -3.41,0.66 -3.39,-2.27 -0.8,0.46 -0.75,0.58 -1.55,1.04l0.08 1.1 -6.92 6.17c-0.88,-0.59 -1.07,-0.65 -2.3,-0.57 0.53,1.89 -0.94,0.94 1.61,1.26 -0.9,0.33 -0.47,0.17 -1.87,1.6 -0.39,0.4 -0.48,0.51 -0.85,0.88l-0.74 0.7 18.61 -0.07 -0.12 -2.58 0 -1.84c0.39,-1.89 0.15,-2.37 1.29,-3.51 1.13,-1.13 1.57,-0.97 3.54,-1.06 -1.87,-0.81 -1.04,0.85 -1.3,-1.54 2.38,-0.48 2.56,2.31 7.1,-0.52l6.06 -3.65c-1.65,-1.19 -3.39,-5.04 -4.4,-6.04 -0.79,-0.77 -5.84,-2.02 -3.4,-6.14l-2.44 -0.13 -0.77 2.35c-0,0.03 0,0.12 -0,0.15l-4.38 4.82c-0.48,0.58 -0.38,0.44 -0.74,1.07z"/>
   <path class="fil8" d="M44.36 80.53c1.48,-2.44 2.26,-2.14 5.9,-2.14 0.45,1.05 0.33,5.1 0.81,7.14 0.32,1.38 0.35,1.39 1.84,1.63 3.8,0.59 5.75,-1.15 9.48,-1.15 0.02,-1.37 0.17,-1.72 -0.14,-2.93 -0.32,-1.23 -1.64,-5.76 -0.32,-6.53l1.23 -0.2c0.75,-1.67 -0.09,-4.98 -0.92,-6.48 -0.71,-1.28 -3.41,-2.64 -5.04,-2.9 -0.3,2.73 -1.07,1.92 -2.66,0.95 -1.19,-0.73 -2.38,-1.29 -4.09,-1.51l-0.88 -0.06c-1.76,1.62 -3.62,3.16 -4.67,5.25 -1.1,2.2 -1.28,7.53 -0.52,8.92z"/>
   <path class="fil0" d="M57.18 66.96c1.64,0.26 4.34,1.62 5.04,2.9 0.83,1.5 1.68,4.81 0.92,6.48 -0.04,2.83 -0.45,4.2 0.14,7.01 1.76,1.22 3.11,0.56 5.43,-0.01 2.8,-0.69 3.43,-1.5 6.57,-1.16l0.2 -0.07c1.21,-3.18 3.55,-6.74 4.43,-9.85 -1.39,-0.87 -7.85,-0.29 -10.1,-0.32l3.73 -9.67 -14.54 0.08c-0.94,0.73 -0.83,0.65 -1.23,2.09 -0.22,0.8 -0.44,1.57 -0.6,2.5z"/>
   <path class="fil4" d="M29.73 57.41c-0.42,0.25 -0.46,0.4 -0.63,1.55 -0.18,1.16 -0.2,0.86 0.1,2.36l0.97 4.91 0.35 0.74c0.51,0 0.35,-0.11 0.35,0.47 1.01,0.37 3.42,3.79 4.04,4.87 1.83,3.19 -2.59,3.77 -5.5,16.03 -0.43,1.83 -1.01,2.62 -0.06,3.8l3.59 0.81 6.53 -13.92c1.1,-2.14 1.93,-2.41 3.1,-3.76 0.49,-3.13 -2.03,-7.18 -2.69,-10.03 -0.36,-1.54 -1.48,-4.05 -2.08,-5.54 -0.67,-1.68 -1.65,-3.72 -2.08,-5.53 -1.69,1.46 -2.93,4.04 -5.98,3.26z"/>
   <path class="fil7" d="M98.4 48.66c-4.71,0.29 -10.02,-0 -15.56,0.06l-14.6 -0.02c-2.32,-0.04 -2.6,-0.49 -2.63,1.52 5.79,0 12.06,-0.2 17.71,0.11 3.15,0.17 12.26,0.12 15.72,-0.03 3.04,-0.13 5.98,-0 8.97,-0 1.65,0 7.64,-0.34 8.92,0.39l-0.09 6.54 0.06 2.18c0.1,1.28 -0.11,1.63 -0.08,2.89 0.41,5.48 -0.42,29.65 0.43,31.52 0.85,1.87 3.1,4.92 4.15,6.6 1.43,-2.22 2.92,-4.92 4.07,-7.23l-5.94 0.3 -0 -47.39 -2.65 -0.07 0.12 2.58 -18.61 0.07z"/>
   <path class="fil9" d="M125.78 21.71c-2.43,4.12 2.62,5.37 3.4,6.14 1.01,1 2.76,4.85 4.4,6.04l-6.06 3.65c-4.54,2.83 -4.73,0.03 -7.1,0.52 0.26,2.38 -0.57,0.73 1.3,1.54 1.96,0.3 2.66,1.09 3.38,2.57 2.71,-0.15 9.02,-1.73 11.47,-2.57 1.27,-0.25 2.65,-0.64 3.6,-1.54l0.33 -0.38c0.03,-0.11 0.1,-0.13 0.16,-0.2 3.04,0.27 2.1,0.35 5.12,-0.41 2.32,-0.58 7.69,-1.05 3.37,-6.33 -1.53,-1.87 -2.25,-1.37 -3.97,-0.48 -5.81,3.03 -3.18,0.9 -8.82,-0.77 -2.11,-1.77 -3.94,-2.37 -5.54,-4.99 -1.2,-1.97 -1.98,-5.79 -5.13,-5.26l-0.18 0.59c0.14,0.56 -0.06,-0.1 0.4,0.6 0.52,0.8 0.03,-0.48 0.57,0.96 -0.33,0.25 -0.22,0.16 -0.7,0.31z"/>
   <path class="fil9" d="M44.36 80.53c0.67,1.43 0.34,12.45 2.99,15.65 0.41,0.5 1.11,1.39 1.6,1.88 0.79,0.79 1.34,0.93 2.67,0.86l3.88 -6.3c0.62,-0.82 5.57,-2.78 6.7,-3.34 2.24,-1.12 4.43,-2.27 6.65,-3.33l4.96 -2.35c1.41,-0.69 1.28,-0.77 1.48,-1.4 -3.14,-0.35 -3.77,0.47 -6.57,1.16 -2.31,0.57 -3.67,1.22 -5.43,0.01 -0.59,-2.82 -0.18,-4.19 -0.14,-7.01l-1.23 0.2c-1.33,0.78 -0.01,5.3 0.32,6.53 0.31,1.21 0.16,1.56 0.14,2.93 -3.73,0 -5.67,1.75 -9.48,1.15 -1.49,-0.23 -1.52,-0.25 -1.84,-1.63 -0.47,-2.05 -0.36,-6.09 -0.81,-7.14 -3.63,0 -4.42,-0.29 -5.9,2.14z"/>
   <path class="fil1" d="M61 60.15c9.26,0.19 18.77,0.01 28.05,-0.01l26.37 0.03c2.07,-0.23 1.07,0.38 1.49,-0.77l-0.06 -2.18 -0.27 -0.75 -56.39 -0.08c-0.58,0.87 0.21,2.74 0.81,3.76z"/>
   <path class="fil10" d="M47.48 46.94c0.81,1.57 9.66,-1.13 13.4,-1.6 2.41,-0.3 2.9,0.62 4.42,-0.06 0.9,-1.98 0.13,-4.95 0.42,-7.55 -2.49,0.62 -0.36,3.06 -3.14,3.85 -0.95,0.27 -4.24,-0.59 -5.52,-0.84 -6.72,-1.3 -5.26,-2.6 -8.87,-3.95 -0.55,1.3 0.03,0.09 -0.95,1.17 -0.84,0.94 -0.45,0.23 -0.86,1.37 -2.75,-1.88 -3.55,0.04 -5.24,1.65 1.16,2.05 3.55,5.3 6.34,5.96z"/>
   <path class="fil2" d="M80.73 13.53l-15.93 -0.06c-0.86,1.66 -3.47,3.16 -3.98,4.65l1.55 0.01 0 14.19c0.42,-0.76 1.03,-1.18 1.69,-1.8 1.39,-1.32 0.84,-0.65 0.75,-3.05 1.75,1.38 0.74,1.72 1.04,1.04l4.24 -4.07c0.65,-0.31 0.33,0.73 -1.12,-1.12 2.46,0.04 2.05,0.29 3.38,-1.11 0.72,-0.76 1.29,-1.53 2.16,-2.02 -2.73,0 -7.89,0.51 -9.34,-0.68 0.16,-2.31 -0.21,-0.75 0.63,-1.44 0,0 0.63,-0.17 1,-0.16 0.45,0.02 1.19,0.04 1.75,0.02 2.34,-0.06 7.42,0.41 8.64,-0.58 1.1,-0.89 2.89,-2.67 3.55,-3.83z"/>
   <path class="fil4" d="M47.13 51.23c-0.55,2.62 -0.14,1.15 -2.02,2.19 -0.38,1.71 0.07,1.45 -0.59,2.62 -0.04,0.07 -0.11,0.14 -0.15,0.2 -1.04,1.86 -0.17,2.1 0.3,4.83 0.57,2.02 1.26,1.32 1.42,3.04 0.73,0.69 2.13,1.86 3.45,2.24l0.88 0.06c0.8,-0.84 1.34,-0.67 2.35,-1.88 0.02,-2.17 -1.41,-3.26 -1.4,-5.19 0.85,-0.49 0.81,-0.26 1.66,0.01 -0.11,-0.97 -0.15,-0.96 -0.54,-1.58l3.89 -3.37c0.77,-0.84 0.5,-0.35 1.35,-0.97 0.41,-2.47 0.24,-2.45 -1.52,-3.54 -1.21,-0.75 -0.75,-1.12 -3.06,-1.21 -3.39,-0.13 -0.34,-0.01 -6.04,2.56z"/>
   <path class="fil4" d="M38.13 29.27c0.99,0.75 1.37,0.88 2.85,1.24 1.08,4.54 0.22,0.69 2.13,4.45 0.6,1.19 -0.28,0.88 1.25,1.15 1.2,-1.13 0.61,-1.15 0.69,-3.1 -0.49,-2.28 -2.08,-4 -1.25,-7.53 0.39,-1.65 0.78,-1.09 2.02,-0.71 0.25,-1.52 0.5,-1.7 1.89,-2.27 1.66,-0.68 1.69,-0.78 2.85,-1.69 -0.77,-2.25 -1.22,-2.73 -3.53,-3.44l-3.51 -0.25 -1.25 0.79c-2.38,-0.63 -0.07,0.07 -1.27,-0.52 -0.01,-0.01 -0.63,-0.4 -0.79,-0.48 -2.56,0.01 -3.79,2.05 -3.41,5.33 0.14,1.22 -0.06,2.92 0.18,3.59 0.49,1.4 0.35,-0.29 1.15,3.44z"/>
   <path class="fil3" d="M125.68 19.25c3.15,-0.53 3.93,3.29 5.13,5.26 1.6,2.62 3.43,3.22 5.54,4.99l0.15 -15.97 -12.13 -0.01c-0.52,1.43 -2.81,3.9 -4.16,4.61 0.69,1.05 -1,0.53 2.68,0.52 0.64,-0 0.84,-0.02 1.39,-0.02 1.32,-0 1.22,0.33 1.39,0.63z"/>
   <path class="fil9" d="M143.68 20.54c1.53,1.2 0.17,0.69 1.23,1.63 0.81,0.72 1.3,0.44 2.67,0.44l-0.16 1.38 -0.61 2.76c1.44,-0.11 3.04,-1.69 5.92,-2.74 1.14,-0.42 1.35,-0.32 2.16,-1.07 -0.97,-1.33 -1.42,-2.89 -1.42,-5.15l-1.73 0.18c-0.29,-0.41 -1.19,-1.71 -1.34,-2.04 -0.22,-0.48 -0.21,-0.76 -0.47,-1.3 -0.34,-0.7 -0.2,-0.36 -0.62,-0.79 -1.33,0.51 -1.02,0.78 -1.51,2.39l-0.22 0.58c-2.61,-1.47 -1.27,-5.71 -3.82,-4.66 -0.01,0 -0.7,0.34 -0.94,0.51 -1.1,0.76 -0.3,-0.45 -0.58,0.66 -0,0.02 -0.05,0.13 -0.05,0.16 -0.01,0.06 -0.06,0.27 -0.06,0.35 -0.04,1.05 0.55,1.64 0.45,3.16 -0.16,2.41 -0.47,0.23 -0.12,1.69l0.49 0.88c0.04,0.06 0.11,0.14 0.16,0.19l0.57 0.75z"/>
   <path class="fil11" d="M79.92 72.27c-0.88,3.11 -3.22,6.66 -4.43,9.85l7.66 -2.22c0.9,-0.76 3.37,-6.51 4.18,-7.91 0.43,-1.94 1.46,-3.38 2.28,-5.26 -10.12,0.76 -6.97,1.64 -9.31,5.08l-0.38 0.46z"/>
   <path class="fil2" d="M108.44 29.61l0.97 0.14 -0.02 7.77c0.8,-0.46 0.75,-0.58 1.55,-1.04l-0 -6.84c2.13,-0.02 4.65,-0.26 6.5,0.34 0.37,-0.63 0.27,-0.49 0.74,-1.07l4.38 -4.82c0,-0.03 -0,-0.12 0,-0.15l0.77 -2.35 2.44 0.13c0.48,-0.15 0.37,-0.06 0.7,-0.31 -0.54,-1.43 -0.06,-0.15 -0.57,-0.96 -0.46,-0.71 -0.25,-0.05 -0.4,-0.6 -0.95,0.52 -1.66,0.37 -3.21,0.35 -7.89,-0.06 -4.48,0.68 -8.87,4.32 -0.8,0.66 -1.08,0.94 -1.79,1.66 -1.15,1.16 -2.39,2.08 -3.2,3.44z"/>
   <path class="fil10" d="M50.43 66.41c1.71,0.22 2.9,0.78 4.09,1.51 1.58,0.97 2.35,1.78 2.66,-0.95 0.16,-0.93 0.38,-1.7 0.6,-2.5 0.4,-1.44 0.29,-1.36 1.23,-2.09 0.79,-1.86 2.1,0.42 1.99,-2.22 -0.6,-1.02 -1.39,-2.89 -0.81,-3.76 -1.15,-1.51 -1.48,-0.65 -2.43,-2.97 -0.84,0.62 -0.58,0.13 -1.35,0.97l-3.89 3.37c0.39,0.62 0.42,0.62 0.54,1.58 -0.85,-0.26 -0.81,-0.49 -1.66,-0.01 -0.02,1.93 1.41,3.02 1.4,5.19 -1.01,1.21 -1.55,1.04 -2.35,1.88z"/>
   <path class="fil7" d="M13.95 89.12c-1.24,-0.86 -2.22,-1.81 -3.02,-3.15 -0.81,0.29 -4.45,2.15 -5.22,2.6 -0.04,1.23 2.29,6.12 2.96,7.49 0.85,1.74 3.31,6.06 5.76,4.06 1.74,-1.24 -0.01,-2.42 -0.43,-4.55 -0.47,-2.4 -0.17,-4.1 -0.06,-6.44z"/>
   <path class="fil12" d="M110.95 36.48c-0.02,2.94 0.16,2.31 3.39,2.27 1.97,-0.02 3.6,-0.26 4.77,-1.31 1.45,-1.31 2.87,-5.32 -1.66,-7.47 -1.85,-0.59 -4.37,-0.36 -6.5,-0.34l0 6.84z"/>
   <path class="fil7" d="M32.92 92.94l-3.59 -0.81c-3.68,0.69 -1.45,0.48 -2.39,4.14 -0.72,2.82 -1.97,3.64 1.81,3.74 2.55,0.06 10.73,0.06 12.4,-0.6l0.15 -1.44c-2.62,-1 -2.38,0.42 -4.83,-1.66 -1.66,-1.41 -2.08,-1.49 -3.55,-3.37z"/>
   <path class="fil12" d="M70.24 31.28l-0.05 7.42c3.36,0 8.59,0.83 8.92,-2.26 0.17,-1.62 -0.67,-1.83 -1.34,-2.45 1.28,-1.43 1.38,-2.87 -0.09,-3.81 -1.28,-0.82 -3.51,-0.56 -5.26,-0.56l-2.08 0.01 -0.1 1.66z"/>
   <path class="fil11" d="M102.1 101.42c1.83,1.05 1.91,0.05 3.71,-0.33 1.68,-0.35 2.76,-0.07 4.52,-0.72 3.28,-1.2 6.84,-4.27 4.68,-5.29l-1.52 -0.53c-1.13,-0.45 0.1,-0.66 -2.25,-0.61 -2.7,0.05 -2.1,0.52 -4.87,-0.31 -0.5,0.41 -0.13,0.04 -0.53,0.55l-3.74 7.25z"/>
   <path class="fil12" d="M109.48 38.62l-0.08 -1.1 0.02 -7.77 -0.97 -0.14 -1.95 0.1 -0.13 3.67c-0.63,-0.51 -1.05,-0.91 -1.78,-1.7 -0.76,-0.82 -0.92,-1.01 -1.13,-1.94l-2.88 -0.13 -0.05 9.1 2.88 0 0.05 -3.81c0.78,0.49 1.36,1.35 2.17,2.31 1.51,1.8 0.64,1.64 3.86,1.41z"/>
   <path class="fil12" d="M80.38 38.71c3.46,0 2.53,0.26 3.17,-1.44 0.33,-0.88 -0.17,-0.18 0.31,-0.79 1.05,0.52 1.29,1.42 2.08,2.23l2.77 0c-0.38,-1.23 -0.78,-1.56 -1.43,-2.58 0.51,-0.97 0.31,-0.4 0.75,-1.02 0.32,-0.45 0.58,-0.79 0.69,-1.46 0.2,-1.25 -0.22,-2.42 -1.02,-3.09 -1.54,-1.28 -4.78,-0.96 -7.22,-0.92l-0.1 9.07z"/>
   <path class="fil10" d="M45.06 33.01c1.01,-0.59 0.94,-0.94 2.22,-1.63 1.58,0.08 2.24,0.94 2.89,-0.63 0.49,-1.18 0.28,-1.76 -0.14,-2.58 1.62,-1.3 0.39,-0.98 1.87,-1.93l0.2 -0.8c-1.78,-1.75 -0.56,-2.09 -1.55,-4.63 -1.16,0.92 -1.18,1.01 -2.85,1.69 -1.39,0.57 -1.64,0.75 -1.89,2.27 -1.24,-0.37 -1.63,-0.94 -2.02,0.71 -0.83,3.52 0.77,5.24 1.25,7.53z"/>
   <path class="fil12" d="M89.14 38.62c4.81,0.5 2.22,-0.38 4.06,-1.45 0.38,-0.1 2.85,-0.2 2.93,0.17 0.03,0.16 0.25,0.37 0.31,0.45 0.96,1.2 0.95,0.92 3.35,0.92 -0.35,-1.24 -1.23,-3.08 -1.81,-4.6 -0.57,-1.51 -1.42,-3.29 -2.05,-4.51l-2.78 0.04c-1.08,1.51 -3.15,6.9 -4,8.98z"/>
   <path class="fil7" d="M116.88 44.17l8.19 0c0.05,0.1 0.06,0.15 0.07,0.33 0.02,0.18 0.05,0.24 0.07,0.33 0.02,0.09 0.09,0.54 0.13,0.66 0.64,2.12 -0.85,-1.6 0.2,0.61 0.52,1.09 -0.68,0.02 0.57,0.73 1.15,-0.52 1.04,0 1.04,-3.43l-2.05 -1.23c-0.72,-1.49 -1.42,-2.28 -3.38,-2.57 -1.97,0.1 -2.41,-0.06 -3.54,1.06 -1.14,1.14 -0.9,1.62 -1.29,3.51z"/>
   <path class="fil1" d="M151.37 99.17c-1.15,-0.91 -2.7,-1.94 -4.39,-1.76 -1.4,0.92 -0.84,1.42 -2.07,2.91 -1.12,1.37 -1.71,1.58 -2.18,2.71 5.83,0.19 4.05,1.36 9.24,-2.03l-0.61 -1.83z"/>
   <path class="fil1" d="M134.73 60.07l0.58 -3.68c-1.79,0.22 -4.88,0.07 -6.8,0.05 -3.99,-0.06 -2.73,-0.28 -2.99,3.6l9.21 0.03z"/>
   <polygon class="fil0" points="57.17,38.55 60.97,38.55 60.95,34.79 56.92,34.72 "/>
   <polygon class="fil1" points="57.19,33.48 60.83,33.46 60.88,29.68 57.16,29.69 "/>
   <polygon class="fil0" points="52.33,19.45 52.33,23.09 54.06,23.09 56.15,23.33 56.03,19.5 "/>
   <polygon class="fil1" points="52.38,33.48 55.88,33.48 56.04,29.68 52.31,29.7 "/>
   <path class="fil1" d="M52.1 25.44l-0.2 0.8c0.6,0.95 0.43,1.07 0.43,2.03l3.66 0.02 -0.08 -3.72 -3.24 0.13c-0.06,0.1 -0.24,0.35 -0.27,0.39 -0.02,0.02 -0.13,0.22 -0.14,0.17 -0.02,-0.06 -0.11,0.12 -0.16,0.19z"/>
   <polygon class="fil1" points="52.33,36.82 52.34,38.57 55.98,38.5 56.02,34.87 52.31,34.87 "/>
   <polygon class="fil1" points="57.15,23.18 60.84,23.18 60.84,19.39 57.41,19.52 "/>
   <polygon class="fil1" points="57.17,28.28 60.75,28.28 60.86,24.58 57.29,24.58 "/>
   <path class="fil3" d="M113.98 34.05l0 2.24 2.94 -0.35c0.84,-1.77 0.9,-3.92 -1.9,-3.92 -1.38,0 -1.04,0.46 -1.04,2.02z"/>
   <path class="fil11" d="M63.57 25.05c1.43,1.23 0.45,-0.86 1.83,1.64 0.2,-2.35 0.03,-0.43 1.19,-1.58 1.16,-1.14 -0.81,-0.99 1.71,-1.1 -0.08,-0.05 -0.22,-0.18 -0.25,-0.11 -0.29,0.55 -1.52,-1.82 -1.52,-1.82 -3.43,0 -2.96,-0.47 -2.96,2.96z"/>
  </g>
 </g>
</svg>
