<?xml version="1.0" encoding="UTF-8"?>
<!DOCTYPE svg PUBLIC "-//W3C//DTD SVG 1.1//EN" "http://www.w3.org/Graphics/SVG/1.1/DTD/svg11.dtd">
<!-- Creator: CorelDRAW (Versión de evaluación) -->
<svg xmlns="http://www.w3.org/2000/svg" xml:space="preserve" width="10.5833mm" height="10.5834mm" version="1.1" style="shape-rendering:geometricPrecision; text-rendering:geometricPrecision; image-rendering:optimizeQuality; fill-rule:evenodd; clip-rule:evenodd"
viewBox="0 0 203.28 203.28"
 xmlns:xlink="http://www.w3.org/1999/xlink"
 xmlns:xodm="http://www.corel.com/coreldraw/odm/2003">
 <defs>
  <style type="text/css">
   <![CDATA[
    .fil1 {fill:#407ADB}
    .fil5 {fill:#424B96}
    .fil10 {fill:#505BB5}
    .fil9 {fill:#5E94EA}
    .fil3 {fill:#6FA0FC}
    .fil4 {fill:#AABEEB}
    .fil2 {fill:#B6CCFC}
    .fil7 {fill:#CFD8FC}
    .fil0 {fill:#EDF7FB}
    .fil8 {fill:#F3B797}
    .fil6 {fill:#FDCEAE}
   ]]>
  </style>
 </defs>
 <g id="Capa_x0020_1">
  <metadata id="CorelCorpID_0Corel-Layer"/>
  <g id="_393739680">
   <path class="fil0" d="M65.33 103.21c0.09,0.58 1.78,2.56 2.22,3.02 1.11,1.15 1.1,1.31 2.64,2.53 8.24,6.54 15.13,3.13 24,2.12 -0.16,-1.29 -0.07,-2.26 -0.14,-3.53 -0.3,-0.8 -2.38,-3.32 -3.09,-4.06 -0.4,-0.42 -0.71,-0.82 -1.11,-1.25 -1.45,-1.58 -2.73,-3.1 -3.59,-6.02 -1.62,-5.49 -1.39,-11.53 2.84,-15.09 0.64,-0.54 2.06,-1.44 3.03,-1.57 1.35,-0.19 2.78,0.52 4.11,0.08 0.58,-0.19 1.76,-1.08 3.11,-1.48 1.37,-0.41 2.77,-0.37 3.33,0.86 0.47,1.03 0.15,2.19 2.68,1.53 1.27,-0.33 2.63,-0.8 3.43,0.34 1.26,1.8 0.69,5.13 -2.76,5.7 -0.26,0.14 -0.12,0.09 -0.2,0.19 2.37,4.49 4.01,12.16 1.43,17.45 -0.91,1.86 -2.06,2.56 -3.46,3.44l-1.36 0.51c-0.02,0.55 -0.13,2.01 0.08,2.4l2.91 1.87c2.48,1.68 5.86,4.56 7.97,6.73 1.92,1.97 8.74,8.54 10.31,9.31 0.5,-1.76 2.45,-6.86 3.25,-9.24l2.25 -7.16c0.24,-0.83 0.44,-1.77 0.71,-2.53 0.01,-0.99 0.01,-1.54 0.37,-2.31 0.21,-0.43 0.21,-0.43 0.56,-0.68 0.45,-0.32 0.26,-0.37 0.55,-0.79l-0.33 -1.69c-0.28,0.02 -0.53,0.07 -0.71,0.11 -1.48,-0.08 -2.93,0.62 -4.95,-1.08 -2.72,-2.29 -2.92,-6.65 -0.31,-9.61 1.06,-1.2 2.62,-1.74 4.52,-1.94 0.25,-0.14 2,-0.47 2.42,-0.59 0.86,-0.23 6.41,-1.91 6.61,-2.66l0 -28.79 -2.53 -2 -1.58 -1.83c-3.13,-4.66 -3.75,-10.2 -1.44,-15.59 1.06,-2.48 2.08,-3.44 3.64,-4.93l0.21 -0.24c0.01,-0.04 0.04,-0.05 0.05,-0.07 -1.08,0 -15.53,-0.12 -16.2,0.07 0.14,2.88 0.07,4.41 -1.12,6.41 -0.98,1.64 -2.76,2.41 -4.49,2.42 -4.41,0.03 -8.83,0 -13.25,0 -4.41,0 -8.84,0.05 -13.25,0 -2.16,-0.02 -3.62,-1.23 -4.44,-2.48 -1.14,-1.75 -1.23,-3.81 -1.08,-6.4l-7.54 -0.01c0.14,2.94 -0.71,5.47 -2.71,7.1 -2.31,1.89 -4.4,1.54 -7.6,1.54 -0.14,1.69 -0.02,12.47 -0.02,15.11l0 11.29c0,2.24 -0.25,1.53 0.67,3.04 1.76,2.92 4.08,5.55 3.97,10.59 -0.14,6.73 -4.59,9.43 -4.64,9.87l0.01 10.02z"/>
   <path class="fil0" d="M133.55 112.36c0.1,0.81 -0.71,5.78 -0.88,6.89 -0.82,5.24 -2.91,17.58 -6.89,19.7 -1.02,0.54 -1.81,0.4 -2.86,0.02 -1.71,-0.62 -3.17,-1.64 -4.51,-2.6 -3.14,-2.25 -4.26,-3.48 -6.81,-5.94 -0.69,-0.66 -0.45,-0.72 -0.92,-0.95 -0.13,2.59 -0.4,5.26 -0.55,7.88 -0.32,5.58 -0.46,10.78 -0.44,16.37l0.16 8.16c2.74,0.25 5.38,0.56 8.03,1.14 1.4,0.31 6.59,1.55 5.73,3.51 -1.04,2.36 -11.47,3.82 -14.58,3.8 -0.75,-0.06 -2.3,0.28 -3.14,0.38 -3.33,0.39 -6.75,0.51 -10.09,0.37 -2.4,-0.1 -10.32,-0.97 -12.24,-1.87l-0.02 -0.42c-1.34,-0.23 -4.48,-1.35 -4.42,-2.76 0.06,-1.51 3.17,-2.21 4.48,-2.71 0.17,-8.69 -0.26,-19.63 -0.54,-28.59l-0.26 -8.89c-0.04,-0.4 0.02,-0.18 -0.09,-0.37 -0.04,-0.04 -4.45,-1.41 -5,-1.62 -1.62,-0.62 -3.15,-1.31 -4.6,-2.09 -1.53,-0.82 -2.82,-1.71 -4.11,-2.66 -1.78,-1.31 -2.2,-1.94 -3.61,-3.22 -0.15,0.45 -0.05,27.78 -0.05,32.25 0,3.54 -0.09,7.24 0.01,10.76 2.61,0 6.17,-0.85 6.44,2.67l0 20.25c-0.28,3.4 -3.98,2.56 -6.45,2.56l-0 8.65c-0.03,0.76 0.47,1.39 1.04,1.56 0.7,0.21 61.2,0.06 68.66,0.06 1.5,0 3.4,0.37 3.57,-1.39 0.13,-1 0.15,-5.12 0.04,-6.14 -3.66,0 -7.32,0 -10.98,0 -1.21,0 -2.6,0.19 -3.33,-0.3 -7.78,-0.17 -15.72,-0.01 -23.52,-0.01 -1.22,0 -22.87,0.13 -23.47,-0.07 -0.14,-0.51 -0.1,-2.02 -0.04,-2.64l46.83 -0.02 -0 -4.85c-1.5,-0.22 -4.23,-0.03 -5.86,-0.03 -3.68,0 -40.31,0.14 -40.93,-0.07 -0.14,-0.49 -0.12,-2.05 -0.02,-2.58 0.78,-0.23 4.75,-0.07 5.85,-0.07 9.77,0 19.54,0 29.3,0 2.17,0 10.16,0.13 11.65,-0.02 0.1,-7.96 0.02,-16.23 0,-24.24 -0,-0.91 -0.05,-1.7 0.63,-1.93 0.45,-0.15 12.82,-0.06 13.9,-0.06l-0.02 -46.17 -2.49 -0.3c0.57,1.79 0.39,3.48 -0.2,5.17 -0.27,0.78 -0.61,1.44 -0.99,2.01 -0.25,0.38 -0.97,1.25 -1.41,1.43z"/>
   <path class="fil1" d="M62.12 111.82l1.54 2.07c0.25,0.34 0.58,0.65 0.84,0.96 0.27,0.32 0.51,0.58 0.78,0.94 0.13,-0.02 0.1,-0.06 0.1,0.09 1.41,1.29 1.83,1.91 3.61,3.22 1.29,0.95 2.59,1.83 4.11,2.66 1.46,0.78 2.98,1.47 4.6,2.09 0.55,0.21 4.96,1.58 5,1.62 0.12,0.19 0.06,-0.02 0.09,0.37l0.26 8.89c0.28,8.97 0.71,19.9 0.54,28.59l-0.06 5.47 0.02 0.42c1.93,0.9 9.85,1.77 12.24,1.87 3.35,0.14 6.76,0.02 10.09,-0.37 0.83,-0.1 2.39,-0.44 3.14,-0.38l1.31 -0.37 -0.49 -8.09 -0.16 -8.16c-0.02,-5.6 0.12,-10.79 0.44,-16.37 0.15,-2.62 0.42,-5.29 0.55,-7.88 0.47,0.23 0.24,0.29 0.92,0.95 2.55,2.46 3.66,3.69 6.81,5.94 1.34,0.96 2.81,1.98 4.51,2.6 1.04,0.38 1.84,0.52 2.86,-0.02 3.98,-2.12 6.07,-14.45 6.89,-19.7 0.17,-1.1 0.98,-6.08 0.88,-6.89 -0.93,-0.2 -1.67,-0.45 -2.26,-1.01 -0.2,-0.2 -0.63,-0.69 -0.78,-0.93 -0.21,-0.32 -0.35,-0.78 -0.6,-1.07 -0.27,0.77 -0.47,1.71 -0.71,2.53l-2.25 7.16c-0.8,2.38 -2.75,7.48 -3.25,9.24 -1.58,-0.78 -8.39,-7.34 -10.31,-9.31 -2.11,-2.17 -5.49,-5.05 -7.97,-6.73l-2.91 -1.87c0.36,0.55 1.34,1.65 1.04,2.9 -0.24,0.98 -1.28,1.38 -2.31,1.5 -2.03,0.23 -4.66,-0.51 -5.8,-1.74 -0.79,-0.61 -0.85,-1.13 -1.27,-2.15 -8.87,1.01 -15.75,4.42 -24,-2.12 -1.54,-1.22 -1.53,-1.38 -2.64,-2.53 -0.44,-0.45 -2.13,-2.44 -2.22,-3.02l-0.12 -0.11c-0.26,-0.22 -0.34,-0.43 -0.5,-0.71 -0.15,-0.24 -0.27,-0.42 -0.4,-0.65 -0.52,-0.87 -2.02,-3.67 -2.19,-4.49 -0.2,-0.27 -0.86,-2.04 -0.88,-2.34 -1.01,0.03 -1.77,0.18 -2.82,0.03 -0.43,-0.06 -0.86,-0.14 -1.28,-0.26 -0.38,-0.11 -0.75,-0.3 -1.08,-0.33l0.93 4.98c1.04,4.23 2,6.98 4,10.62 0.36,0.66 0.78,1.21 1.12,1.86z"/>
   <path class="fil2" d="M124.13 176.44l-0 2.78 0 4.85c0.04,1.15 -0.09,1.73 0.2,2.75 0.72,0.49 2.11,0.3 3.33,0.3 3.66,0 7.32,0 10.98,0 0.11,1.02 0.09,5.13 -0.04,6.14 0.33,-0.42 0.1,-5.15 0.16,-6.13 2.3,0 20.01,-0.21 20.59,0.07 3.12,0 6.25,-0.01 9.37,0 2.13,0.01 1.75,-0.5 1.75,-3.46 0,-1.83 -0.01,-3.66 0,-5.49 0.12,-7.87 0,-16.42 0,-24.42 0,-1.32 0.22,-3.13 -0.5,-3.5 -0.45,-0.23 -2.72,-0.11 -3.37,-0.11 -9.28,0 -18.57,0 -27.87,0l0.02 -46.14 -0.11 -0.02 0.02 46.17c-1.07,0 -13.45,-0.09 -13.9,0.06 -0.68,0.22 -0.63,1.02 -0.63,1.93 0.02,8.01 0.09,16.28 -0,24.24z"/>
   <path class="fil3" d="M47.47 196.23c2.85,-0.37 5.75,-0.9 8.71,-1.17 1.51,-0.14 3.03,-0.27 4.54,-0.43 0.93,-0.09 3.92,-0.42 4.63,-0.29l0.78 0.82c0.32,0.33 0.5,0.44 0.86,0.73 2.22,1.75 4.35,2.35 7.15,2.35l48.78 0c3.5,0 8.37,0.44 11.46,-0.81 3.86,-1.56 3.28,-3.21 4.95,-3.05 5.36,0.52 9.77,0.66 15.44,1.65 0.27,-0.39 0.23,0.02 0.35,-0.49 -1.05,0 -2.39,-0.17 -3.25,-0.41 0.08,-0.35 0.79,-1.12 1.14,-1.73 0.99,0 2.43,0.43 3.85,0.3 1.79,-0.16 4,-2.14 5.42,-3.48 0.41,-0.39 0.77,-0.7 1.18,-1.08 0.25,-0.23 0.98,-0.9 1.13,-1.13 -0.73,0.07 -1.79,0.44 -2.98,0.51 -0.51,0.03 -0.94,0.12 -1.58,0.1 -0.89,-0.03 -0.92,-0.21 -1.31,-0.51 0.13,-0.63 0.17,-0.66 0.63,-0.92 -0.57,-0.29 -18.28,-0.07 -20.59,-0.07 -0.07,0.99 0.17,5.72 -0.16,6.13 -0.17,1.76 -2.07,1.39 -3.57,1.39 -7.47,0 -67.96,0.14 -68.66,-0.06 -0.57,-0.17 -1.07,-0.8 -1.04,-1.56 -0.29,-0.38 0.04,-7.41 -0.12,-8.65l-20.8 0c-1.24,0 -2.16,0.13 -2.9,-0.74 -0.83,-0.98 -0.83,-1.47 -0.83,-3.16 0,-5.36 0,-10.72 0,-16.07 0,-1.05 -0.12,-2.92 0.2,-3.78 0.84,-2.32 3.36,-1.74 5.55,-1.74 4.39,0 3.12,0.66 4.39,-1.79 0.3,-0.57 0.64,-1.32 0.96,-1.84 -0.85,-0.02 -3.25,-1.61 -3.75,-2.1 1.78,-0.49 4.21,-0.47 6.06,-0.3 1.22,0.11 4.47,0.92 5.13,1.72 -1.09,0.1 -5.88,-0.16 -6.38,0.08 1.17,0.12 2.72,0.02 3.93,0.02 0.67,0 1.35,0.01 2.02,0 0.91,-0.01 1.06,-0.24 1.75,0.3l-0.65 -3.03c-1.39,-0.04 -2.42,0.12 -3.89,-0.09 -2.78,-0.42 -5.05,-1.53 -7.32,-3.29 -0.37,-0.28 -0.95,-0.65 -1.17,-1.04 3.73,-0.05 7.97,0.3 11.12,2.84 0.24,0.19 0.36,0.23 0.58,0.45 0.31,0.3 0.15,0.32 0.56,0.48l-1.03 -4.25c-4.37,0.4 -8.17,-0.3 -12,-2.63 -0.71,-0.43 -2.53,-1.74 -2.86,-2.24 2.92,-0.15 5.67,0.07 8.48,0.82 3.91,1.06 5.87,3.3 6.16,3.44 -0.2,-1.05 -0.96,-3.6 -1.33,-4.46 -4.15,0.46 -8.88,-0.45 -12.43,-2.79 -0.77,-0.51 -2.62,-1.72 -2.97,-2.33l-2.22 0.01 -0.53 4.88 -3.35 -2.52c-0.6,-0.42 -1.13,-0.81 -1.77,-1.21l-1.81 -1.15c-1.2,-0.05 -2.4,-0.01 -3.6,-0.02 -1.35,-0.02 -1.49,-0.83 -1.51,-2.32 -0.42,-0.13 -0.85,-0.29 -1.3,-0.41 -0.48,0.83 -0.83,1 -1.43,2.41 -0.42,0.97 -0.67,1.92 -0.88,3.15 -0.91,5.29 0.62,12.29 2.09,17.4 0.19,0.66 0.83,2.62 0.85,3.19 -0.57,-0.02 -0.79,-0.28 -1.2,-0.54 -0.38,-0.24 -0.67,-0.46 -1.03,-0.74l-1.54 -1.18c-0.18,-0.12 -0.38,-0.33 -0.43,0.11 -0.12,1.1 1.31,4.53 1.96,5.67 0.84,1.47 2.43,2.61 3.67,3.58 0.34,0.27 0.68,0.51 1.04,0.73 0.23,0.14 0.32,0.22 0.54,0.39l1.6 1.1c0.47,0.36 0.83,0.52 0.93,0.96 -1.25,0 -4.48,-1.92 -5,-1.32 -0.28,0.67 0.85,1.85 1.21,2.26 0.86,1 2.66,2.65 3.72,3.62 0.62,0.57 1.6,1.33 1.66,2.05 -1.13,0 -1.59,-0.26 -2.42,-0.66 -2.01,-0.98 0.47,3.34 0.95,3.89 1.9,2.22 3.14,2.45 6.04,3.57 0.94,0.36 2.51,0.92 3.38,1.37 0.38,0.2 0.8,0.31 0.91,0.78 -1.2,0.93 -4.77,-0.42 -5.97,0.51 0.07,0.35 0.07,0.36 0.3,0.57 0.76,0.72 0.7,0.62 1.6,1.09 0.86,0.45 1.64,0.62 2.6,0.95 1.02,0.34 3.7,0.92 4.47,1.64 0.25,0.23 0.24,0.26 0.24,0.74 -0.4,0.31 -0.48,0.31 -1.14,0.31 -2.41,-0.02 -2.56,-0.38 -3.95,-0.51 0.39,0.68 4.67,4.36 5.76,4.81 0.36,0.15 1.06,0.14 1.26,0.26z"/>
   <path class="fil2" d="M137.82 34.08c-0.44,0.6 -0.95,0.47 -1.75,0.47 -1.37,0 -14.75,-0.07 -15.07,0.04 -0.25,0.08 -0.04,-0.04 -0.19,0.13 0.67,-0.19 15.12,-0.07 16.2,-0.07 -0.02,0.02 -0.04,0.03 -0.05,0.07l-0.21 0.24c-1.56,1.5 -2.58,2.46 -3.64,4.93 -2.31,5.4 -1.69,10.93 1.44,15.59l1.58 1.83 2.53 2 0 28.79c-0.19,0.75 -5.74,2.43 -6.61,2.66 -0.42,0.11 -2.16,0.45 -2.42,0.59 0.01,0.02 -0.17,4.49 -0.16,5.2 0.03,1.08 0.21,4.07 0.51,4.99 0.38,0.18 2.5,-0.13 3.11,-0.18 2.4,-0.17 4.44,-0.07 6.81,0.24 0.92,0.12 2.16,0.49 3,0.53 -0.44,-5.04 -0.61,-9.03 0.39,-14.11 0.27,-1.39 0.64,-2.71 0.91,-4.02 0.02,0.54 -0.28,2.26 -0.35,2.98 -0.51,5.16 -0.01,10.71 1.19,15.66 0.49,2.04 1.04,3.39 1.65,5.21 0.17,0.45 0.42,1.04 0.65,1.48 0.14,0.27 0.21,0.44 0.35,0.71 0.18,0.35 0.26,0.41 0.4,0.8 0.25,0.18 0.47,0.7 0.68,1 0.26,0.37 0.48,0.65 0.71,1 0.4,0.59 1.13,1.38 1.68,1.82 0.22,0.17 0.36,0.3 0.63,0.49 0.27,0.18 0.46,0.31 0.77,0.47 2.42,0.69 0.47,0.26 2.73,0.47 0.08,1.13 0.22,1.82 0.22,3.09 0.01,-0.29 1.02,-2.19 1.23,-2.61 0.16,-0.32 0.55,-0.99 0.61,-1.24 0.16,-0.67 -0.31,0.15 0.85,-1.04 0.9,-0.92 2.26,-3.32 2.77,-5.13l0.09 -0.1 0 -0.2 0.7 -2.47 0.53 -3.73c0.45,-4.48 0.28,-7.75 -0.38,-12.19 -0.68,-4.57 -2.28,-9.54 -4.26,-12.66 -1.62,-2.55 -4.12,-5.33 -7.17,-4.52 -2.81,0.75 -4.42,4.2 -5.36,7.01 -0.18,0.54 -0.34,1.03 -0.46,1.6 -0.07,0.31 -0.11,0.56 -0.2,0.88 -0.14,0.48 -0.13,0.33 -0.37,0.69 -0.35,0.51 -1.52,1.92 -1.97,2.19 -0.18,0.37 -1.68,1.55 -2.15,1.69 -0.21,0.3 -0.91,0.66 -1.23,0.84l-0.01 -28.96 1.22 0.57c0.67,0.29 1.42,0.53 2.18,0.62 1.72,0.58 4.56,-0 6.26,-0.77 1.5,-0.68 3.34,-2.05 4.43,-3.41l0.84 -1.17c0.3,-0.48 0.48,-0.75 0.75,-1.27 1.54,-2.97 2.27,-6.85 1.51,-10.46 -1.14,-5.45 -4.44,-9.35 -9.09,-10.72 -0.93,-0.27 -2.27,-0.49 -3.2,-0.38 -1.54,0.17 -1.66,0.07 -3.2,0.57 -0.93,0.31 -1.81,0.83 -2.59,1.28z"/>
   <path class="fil3" d="M170.47 178.24c1.08,-0.29 2.33,-1.13 3.15,-2.05l0.56 -0.67c0.72,-0.83 2.15,-3.37 1.91,-4.61 -0.5,0 -0.53,0.04 -0.88,0.2 -0.89,0.42 -1.53,0.71 -2.63,0.71 0,-0.86 0.34,-0.94 0.76,-1.35l3.2 -3c0.65,-0.66 3.95,-3.59 3.49,-4.7 -0.65,-0.36 -2.32,0.41 -2.88,0.62 -0.79,0.31 -1.8,0.9 -2.82,0.9 0.04,-0.58 1.22,-1.24 1.61,-1.49l1.87 -1.29c1.08,-0.74 2.59,-1.86 3.52,-2.74 1.4,-1.33 1.77,-1.79 2.62,-3.77 0.55,-1.27 1.43,-3.36 1.43,-5.15 -0.4,0.04 -1.34,0.88 -1.89,1.26 -0.69,0.49 -1.06,0.85 -1.91,1.35 -1.54,0.91 -1.05,0.16 -0.42,-2.01 1.85,-6.41 4.14,-15.33 2.59,-22.1 -0.42,-1.81 -1.03,-3.31 -2.03,-4.67 -0.54,-0.73 -0.64,-0.48 -1.48,-0.24 -2.88,0.83 -6.01,2.65 -8.57,4.3 -2.25,1.45 -4.15,2.97 -6.25,4.65 -0.24,0.19 -0.4,0.3 -0.63,0.5 -0.25,0.22 -0.37,0.32 -0.64,0.48 0,-0.86 -0.18,-1.6 -0.18,-2.54 -0.46,0.18 -1.9,1.41 -3.04,1.81l0.03 -1.38c-0.66,-0.05 -1.91,1.12 -2.29,1.46 -1.52,1.38 -0.65,1.22 -2.22,1.58 -3.54,0.8 -5.56,0.16 -6.47,0.34 -0.36,1.09 -1.14,3.32 -1.28,4.4 0.57,-0.43 0.87,-0.77 1.71,-1.35 0.59,-0.41 1.22,-0.73 1.89,-1.07 1.21,-0.62 2.98,-1.18 4.42,-1.4 -0.18,0.63 -0.43,1.22 -0.63,1.93 -0.13,0.49 -0.35,1.64 -0.54,2.02l-1.41 0.33c-0.02,-0.73 -0.02,-1.19 -0.36,-1.63 -0.96,-0.03 -1.29,1.76 -1.87,1.91 -0.83,0.23 -2.5,-0.1 -3.38,-0.07 -0.2,0.37 -0.26,0.8 -0.37,1.26 -0.17,0.67 -0.14,0.5 -0.65,0.69l0.49 -2c-0.77,-0.51 -2.97,-2.61 -3.5,-3.34 -0.68,-0.94 -2.54,-3.4 -2.68,-4.21 -0.02,-0.09 -0.1,-4.43 0.05,-4.75l-0.01 -2.85c-0.04,-0.81 -0.16,-2.95 -0.04,-3.72l0.04 -0.14 0 -15.55c-0.46,-0.2 -0.99,-0.41 -1.53,-0.58 -0.41,-0.13 -1.27,-0.3 -1.58,-0.46l-0.02 46.14c9.3,0 18.59,0 27.87,0 0.65,0 2.92,-0.12 3.37,0.11 0.72,0.37 0.5,2.18 0.5,3.5 0,8 0.12,16.54 -0,24.42z"/>
   <path class="fil2" d="M62.13 43.34l3.03 -0.05c0.18,0.65 0.06,25.17 0.06,28.08 -0.31,-0.26 -0.47,-0.63 -0.7,-1.01 -0.21,-0.35 -0.41,-0.6 -0.58,-0.96 -0.19,-0.26 -0.36,-0.59 -0.59,-0.82 -0.65,0.59 -1.29,1.11 -1.97,1.67 -0.36,0.3 -0.67,0.56 -1.02,0.86 -0.35,0.29 -0.64,0.59 -0.96,0.78 0.19,0.38 0.41,0.72 0.65,1.1l2.07 3.33 1.73 2.74c2.75,4.32 -0.04,9.07 -1.73,9.5 -0.38,0.31 -1.4,0.65 -2.03,0.65 -0.28,0.17 -0.86,0.09 -1.25,0.02 -1.81,-0.3 -3.02,-1.48 -3.98,-3.11 -0.29,-0.49 -0.9,-1.3 -1.08,-1.8l-1.57 -2.46c-0.27,-0.46 -0.49,-0.78 -0.77,-1.24 -0.21,-0.35 -0.66,-0.95 -0.74,-1.31 -0.49,0.24 -1.56,1.25 -2.08,1.68 -0.35,0.29 -0.63,0.53 -1.02,0.85 -0.34,0.28 -0.76,0.48 -0.99,0.95 0.93,0.98 4.39,7.64 6.36,9.48 1.04,0.97 1.78,1.38 3.08,2.06 0.33,0.04 0.7,0.23 1.08,0.33 0.42,0.12 0.85,0.19 1.28,0.26 1.04,0.16 1.8,0 2.82,-0.03 0.28,-0.07 0.62,-0.13 0.92,-0.2 0.17,-0.14 1.24,-0.5 1.58,-0.67 0.56,-0.29 0.98,-0.61 1.49,-0.87l-0.01 9.93 0.12 0.11 -0.01 -10.02c0.05,-0.44 4.49,-3.14 4.64,-9.87 0.11,-5.05 -2.21,-7.68 -3.97,-10.59 -0.91,-1.51 -0.67,-0.8 -0.67,-3.04l0 -11.29c0,-2.64 -0.12,-13.42 0.02,-15.11 3.2,0 5.29,0.35 7.6,-1.54 2,-1.63 2.85,-4.16 2.71,-7.1l7.54 0.01c-0.06,-0.04 -0.04,-0.04 -0.2,-0.08l-7.35 -0.02c-0.17,-2.06 -1.02,-2.99 -1.18,-3.63 -0.55,-0.57 -0.54,-0.93 -1.65,-1.81 -0.69,-0.54 -1.36,-0.92 -2.3,-1.2 -1.55,-0.46 -3.4,-0.24 -4.85,0.61 -0.23,0.13 -0.33,0.24 -0.55,0.37 0.07,-0.94 0.32,-1.33 0.13,-2.79 -0.32,-2.5 -1.38,-4.47 -3.2,-5.75 -2.42,-1.7 -5.6,-1.42 -7.69,0.64 -0.18,0.17 -0.19,0.23 -0.38,0.38 -0.55,-2.73 -2.2,-4.37 -4.44,-4.93 -2.25,-0.56 -4.71,1 -5.74,3.3 -0.75,1.68 -0.87,3.98 -0.17,5.5 -0.95,0 -1.73,0.2 -2.4,0.57 -0.62,0.35 -1.25,0.87 -1.65,1.44 -1.14,1.63 -1.36,3.3 -0.95,5.31 -1.19,-0.66 -3.2,-0.21 -4.4,0.9 -2.61,2.4 -2.28,6.86 0.15,8.81 1.53,1.22 2.44,1.08 4.86,1.08 7.64,0 15.28,0 22.92,0z"/>
   <path class="fil2" d="M27 134.5c0.01,1.48 0.16,2.3 1.51,2.32 1.2,0.01 2.4,-0.03 3.6,0.02l7.46 -0 2.22 -0.01c4.91,0.16 7.87,-0.1 12.24,2.25 1.53,0.82 1.67,1.09 2.87,2.12 -0.21,-0.74 -0.84,-2.71 -1.14,-3.28 -0.67,-0.03 -4.38,-0.48 -5.07,-1.08 1.33,-0.11 2.89,-0.03 4.24,-0.02 0.74,0 1.19,-0.09 1.44,-0.74 0.15,-0.39 0.22,-1.83 0.22,-2.29l0 -4.53c-0.14,-0.28 -0.13,-7.92 0,-8.5 -0,-1.66 0.15,-13.78 -0.13,-14.81 -0.38,-1.42 -1.85,-1.06 -3.38,-1.06 -7.16,0 -14.33,0 -21.5,0 -1.09,0 -3.41,-0.26 -4.05,0.28 -0.51,0.43 -0.51,0.87 -0.51,1.85l0 22.48c0,1.55 0.09,3.48 -0.02,4.99z"/>
   <path class="fil2" d="M61.16 156.14c-0.21,-0.43 -0.43,-0.8 -0.63,-1.18 -0.69,-0.54 -0.84,-0.31 -1.75,-0.3 -0.67,0.01 -1.35,-0 -2.02,-0 -1.21,0 -2.76,0.1 -3.93,-0.02 -0.62,-0.01 -0.82,0.2 -1.07,0.6 -0.32,0.52 -0.67,1.27 -0.96,1.84 -1.28,2.46 0,1.79 -4.39,1.79 -2.19,0 -4.7,-0.59 -5.55,1.74 -0.31,0.87 -0.2,2.73 -0.2,3.78 0,5.36 0,10.72 0,16.07 -0,1.69 -0.01,2.18 0.83,3.16 0.73,0.86 1.66,0.74 2.9,0.74l20.8 0c0.17,1.23 -0.16,8.27 0.12,8.65l0 -8.65c2.47,0 6.17,0.83 6.45,-2.56l-0 -20.25c-0.27,-3.51 -3.84,-2.67 -6.44,-2.67 -0.09,-3.52 -0.01,-7.22 -0.01,-10.76 0,-4.47 -0.1,-31.8 0.05,-32.25 0,-0.15 0.03,-0.11 -0.1,-0.09 -0.19,0.56 -0.05,19.2 -0.05,21.56 0,1.55 0.1,20.55 -0.03,21.54l-2.6 -0.01 -1.43 -2.73z"/>
   <path class="fil2" d="M47.47 196.23c-0.43,0.04 -0.97,0.21 -1.34,0.3 -0.98,0.22 -5.49,1.23 -2.46,2.7 2.17,1.06 8.02,1.58 10.12,2 0.68,0.14 1.01,0.21 1.84,0.2 0.9,-0.01 4.4,0.48 5.43,0.51 1.77,0.05 3.84,0.29 5.62,0.4 0.31,0.02 0.65,-0.02 0.96,0l2.89 0.21c1.2,-0.01 2.65,0.09 3.78,0.2l3.86 0.11c0.75,-0 1.14,0.11 1.84,0.1l3.95 0.1c0.32,0 0.65,-0.02 0.97,-0 0.44,0.02 0.49,0.1 0.96,0.11 10.31,0.15 21.19,0.15 31.5,0 0.54,-0.01 0.79,-0.11 1.84,-0.11l3.86 -0.1c0.76,0 1.17,-0.11 1.93,-0.1 1.38,0.01 2.52,-0.05 3.86,-0.1 0.71,-0.02 0.74,-0.11 1.93,-0.1 1.42,0.01 4.08,-0.28 5.7,-0.3l5.52 -0.41c0.51,-0 1.42,-0.11 1.87,-0.17l7.33 -0.76c1.14,-0.15 2.33,-0.32 3.49,-0.54 1.23,-0.23 2.21,-0.38 3.34,-0.71 1.24,-0.36 4.4,-1.33 1.54,-2.52 -1.26,-0.52 -3.46,-0.99 -4.84,-1.22 -5.67,-0.99 -10.08,-1.13 -15.44,-1.65 -1.67,-0.16 -1.09,1.48 -4.95,3.05 -3.09,1.25 -7.96,0.81 -11.46,0.81l-48.78 0c-2.8,0 -4.93,-0.6 -7.15,-2.35 -0.36,-0.29 -0.55,-0.4 -0.86,-0.73l-0.78 -0.82c-0.71,-0.13 -3.69,0.2 -4.63,0.29 -1.5,0.16 -3.03,0.29 -4.54,0.43 -2.96,0.27 -5.86,0.8 -8.71,1.17z"/>
   <path class="fil3" d="M83.19 34.66c-0.15,2.59 -0.07,4.65 1.08,6.4 0.82,1.25 2.28,2.46 4.44,2.48 4.41,0.05 8.84,0 13.25,0 4.41,0 8.83,0.03 13.25,0 1.74,-0.01 3.52,-0.78 4.49,-2.42 1.19,-1.99 1.26,-3.53 1.12,-6.41 0.15,-0.17 -0.06,-0.04 0.19,-0.13 0.32,-0.11 13.7,-0.04 15.07,-0.04 0.8,0 1.31,0.12 1.75,-0.47l-2.51 -1.86c-3.51,-1.75 -7.02,-1.29 -11.26,-1.29l-49.6 0c0.15,0.64 1,1.57 1.18,3.63l7.35 0.02c0.16,0.04 0.14,0.04 0.2,0.08z"/>
   <path class="fil4" d="M150.76 74.66c-2.98,0.86 -4.42,4.86 -5.24,8.72 -1.68,7.87 -0.31,18.04 2.68,25.07 0.74,1.74 1.59,2.97 2.71,4.28 2.7,3.15 5.87,2.6 7.98,-1.42 3.37,-6.41 2.9,-18.13 0.94,-25.12 -0.57,-2.05 -1.04,-3.46 -1.83,-5.29 -1.03,-2.38 -3.85,-7.21 -7.24,-6.24z"/>
   <path class="fil1" d="M161.78 106.39l-0.7 2.47c0.12,0.15 0.12,0.05 0,0.2l-0.09 0.1c-0.51,1.81 -1.88,4.21 -2.77,5.13 -1.16,1.19 -0.69,0.36 -0.85,1.04 -0.06,0.25 -0.45,0.92 -0.61,1.24 -0.22,0.42 -1.23,2.32 -1.23,2.61 -0,-1.28 -0.14,-1.97 -0.22,-3.09 -2.27,-0.21 -0.32,0.22 -2.73,-0.47l0.09 0.26c0.22,0.22 0.93,1.79 1.17,2.21l1.28 2.11 -2.1 4.65c0.04,-1.74 0.07,-2.64 -0.17,-4.4 -0.19,-1.37 -0.74,-2.65 -0.92,-3.76 -0.16,-0.73 -0.61,-1.42 -0.74,-2.03 -0.55,-0.45 -1.28,-1.23 -1.68,-1.82 -0.24,-0.35 -0.46,-0.63 -0.71,-1 -0.2,-0.29 -0.43,-0.82 -0.68,-1l0.15 2.32c0.25,2.05 0.45,3.43 1.05,5.4 0.12,0.4 0.21,0.57 0.3,0.96 0.22,0.22 1.21,2.66 1.42,3.06 0.46,0.87 1.18,2.15 1.76,2.71 -0.03,0.65 -0.65,1.85 -0.88,2.5 -0.28,0.81 -0.62,1.67 -0.95,2.42 -0.02,-1.74 -0.28,-3.58 -0.78,-5.14 -0.24,-0.76 -0.51,-1.48 -0.75,-2.18 -0.24,-0.68 -0.71,-1.4 -0.87,-2.04 -1.05,-1.81 -0.98,-1.8 -2.22,-3.74l-1.24 -1.72c-0.22,-0.32 -1.12,-1.49 -1.37,-1.57 0,0.34 0.07,1.08 0.12,1.48 0.06,0.53 0.13,1.07 0.21,1.49 0.44,2.65 1.19,5.18 2.3,7.49 0.24,0.26 0.73,1.32 0.97,1.74 0.9,1.56 1.77,2.77 2.91,4.05l0.54 0.63 -0.96 2.92c-0.2,-0.31 -0.55,-1.91 -0.73,-2.43 -0.48,-1.38 -1.27,-3.08 -2.04,-4.25 -0.29,-0.45 -1.11,-1.6 -1.22,-1.94l-3.95 -4.38 -0.04 0.14c-0.12,0.77 -0.01,2.91 0.04,3.72l1.94 3.87c0.32,0.11 0.78,1.09 1.24,1.71 0.89,1.17 1.48,1.78 2.41,2.79l1.17 1.09c0.3,0.26 0.58,0.4 0.81,0.72l-1.18 4.08c-0.51,-1.26 -0,-1.33 -1.96,-5.34 -0.37,-0.76 -0.91,-1.57 -1.34,-2.21l-0.77 -1.04c-0.14,-0.19 -0.2,-0.34 -0.35,-0.51 -0.23,-0.26 -0.31,-0.19 -0.4,-0.57 -0.12,-0.11 -1.52,-1.65 -1.56,-1.73 -0.15,0.33 -0.07,4.67 -0.05,4.75 0.14,0.81 2,3.27 2.68,4.21 0.53,0.73 2.74,2.83 3.5,3.34l-0.49 2c0.51,-0.19 0.48,-0.02 0.65,-0.69 0.12,-0.46 0.17,-0.89 0.37,-1.26 0.88,-0.02 2.55,0.3 3.38,0.07 0.57,-0.16 0.91,-1.95 1.87,-1.91 0.34,0.44 0.34,0.89 0.36,1.63l1.41 -0.33c0.19,-0.38 0.41,-1.53 0.54,-2.02 0.19,-0.71 0.45,-1.3 0.63,-1.93 -1.44,0.22 -3.21,0.78 -4.42,1.4 -0.67,0.34 -1.3,0.65 -1.89,1.07 -0.84,0.58 -1.14,0.93 -1.71,1.35 0.14,-1.08 0.93,-3.32 1.28,-4.4 0.9,-0.18 2.93,0.46 6.47,-0.34 1.58,-0.36 0.71,-0.2 2.22,-1.58 0.38,-0.34 1.63,-1.51 2.29,-1.46l-0.03 1.38c1.14,-0.39 2.58,-1.63 3.04,-1.81 0.35,-0.21 1.29,-0.98 1.49,-1.32 -0.69,0 -1,-0.1 -1.67,-0.1 -0.47,0.16 -3.22,0.21 -4.11,0.32 -2.29,0.3 -4.82,1.1 -6.83,2.26 -1.42,0.82 -2.38,1.84 -2.64,1.99 0.18,-0.73 0.86,-2.97 1.21,-3.45 0.61,-0.38 4.34,0.43 10.51,-3.99 0.37,-0.26 0.91,-0.79 1.25,-0.89l1.04 -1.03c0.17,-0.16 0.21,-0.17 0.39,-0.37 0.35,-0.38 1.06,-1.15 1.29,-1.55 -1.3,0 -2.63,0.49 -3.33,0.51l-3.09 1.01c-3.06,1.18 -4.82,2.25 -7.04,4.54 -0.12,0.12 -0.15,0.18 -0.27,0.3 -0.22,0.22 -0.09,0.13 -0.35,0.29 0.11,-0.6 1.41,-3.91 1.69,-4.24 0.42,-0.18 1.85,-0.31 2.48,-0.47 3.81,-0.98 5.5,-2.63 6.22,-2.88 0.77,-0.49 1.52,-1.21 2.19,-1.81 0.56,-0.5 1.6,-1.53 1.93,-2.24 -1.06,0 -3.43,0.63 -4.57,1 -0.27,0.09 -0.4,0.08 -0.6,0.28 -1.36,0.6 -2.41,0.97 -3.68,1.78 -0.57,0.36 -2.31,1.64 -2.76,2.2 -0.29,0.37 -0.07,0.22 -0.46,0.38l1.41 -3.25c0.22,-0.42 0.1,-0.31 0.97,-0.52 0.68,-0.16 1.47,-0.44 2.11,-0.7 0.68,-0.28 1.36,-0.71 1.97,-0.92 1.64,-0.82 3.98,-2.77 5.29,-4.29 0.32,-0.37 1.16,-1.49 1.38,-1.96 -1.48,0.14 -5.71,2.11 -7.2,3.15 -0.26,0.18 -0.68,0.53 -0.96,0.62 -0.1,-0.09 -0.62,-0.78 -0.7,-0.92 0.3,-0.65 0.68,-1.2 0.97,-1.83 2.03,0 5.17,-0.85 6.87,-1.8 0.69,-0.38 1.35,-0.64 1.91,-1.15 -0.18,-0.29 -0.7,-0.78 -0.98,-0.97l-2 0.48c-0.6,0.17 -1.3,0.4 -1.88,0.66 -1,0.46 -1.63,0.73 -2.52,1.35 -0.23,0.16 -0.54,0.44 -0.78,0.51 0.1,-0.44 1.48,-2.35 1.75,-2.95 1.29,0.12 3.66,0.02 4.81,-0.71 -0.28,-0.35 -0.4,-0.43 -0.67,-0.72 -0.33,-0.35 -0.42,-0.49 -0.8,-0.75 -0.54,0.17 -0.88,0.38 -1.35,0.61 -0.42,0.2 -0.91,0.56 -1.28,0.65 0.83,-1.44 1.14,-1.2 1.88,-1.79 0.26,-0.21 0.42,-0.36 0.66,-0.55l0.09 -0.1c0.1,-0.34 0.26,-0.65 0.36,-1 0.24,0.11 0.02,0.05 0.34,0.09 1.74,-3.01 1.38,-4.39 1.67,-5.09 -0.94,0.09 -3.01,2.25 -3.72,3.52 -1.31,2.32 -0.71,3.2 -1.43,4.14 -0.22,0.29 -0.61,0.93 -0.81,1.09 0.04,-0.5 0.17,-1.35 0.17,-1.86z"/>
   <path class="fil0" d="M31.93 112.52l0 16.68c0,0.71 0.13,0.74 0.71,0.74l18.25 0c0.56,0 0.71,-0.03 0.71,-0.74 0,-2.8 0.11,-15.54 -0.07,-17.29l-18.96 -0.1c-0.59,0 -0.64,0.04 -0.64,0.71z"/>
   <path class="fil3" d="M145.91 85.91c0.74,-0.15 1.47,0.55 1.84,0.97 1.75,1.96 2.43,5.8 2.8,6.5 0.16,0.07 0.04,0.01 0.12,0.16 1.52,-0.32 2.01,4.22 0.64,4.76 -0.07,0.64 0.11,2.3 0.12,3.14 0.01,1.05 -0.05,2.15 -0.15,3.18 -0.13,1.23 -0.68,4.59 -1.33,5.11 0.6,1.46 3.16,4.17 5.41,3.47 2.02,-0.63 3.27,-3.06 4,-5.43 1.61,-5.23 1.57,-12.03 0.56,-17.71 -0.94,-5.29 -2.9,-10.89 -5.9,-13.19 -2.58,-1.98 -4.53,-0.44 -5.82,1.58 -1.24,1.95 -1.79,4.7 -2.28,7.45z"/>
   <path class="fil5" d="M94.05 107.35c0.18,-0.29 0.07,-1.47 0.03,-1.71 -0.07,-0.47 -0.73,-1.08 -1.15,-2.4 -0.62,-1.96 0.22,-1.25 -1.06,-1.82 -0.23,-0.1 -0.47,-0.25 -0.69,-0.42 -1.13,-0.87 -2.01,-3.18 -1.84,-4.94 0.22,-2.33 2.66,-3.52 3.64,1.23l0.67 -0.19 -0.36 -4.36c1.25,-0.39 2.85,-2.11 3.66,-3.42l0.88 -1.64c2.37,0.14 3.82,0.28 6.14,-0.5 0.59,-0.2 1.2,-0.53 1.76,-0.69l0.3 -0.11c3.44,-0.57 4.02,-3.9 2.76,-5.7 -0.8,-1.14 -2.16,-0.67 -3.43,-0.34 -2.53,0.66 -2.21,-0.5 -2.68,-1.53 -0.56,-1.24 -1.96,-1.27 -3.33,-0.86 -1.35,0.4 -2.53,1.29 -3.11,1.48 -1.33,0.44 -2.77,-0.27 -4.11,-0.08 -0.96,0.13 -2.38,1.03 -3.03,1.57 -4.23,3.56 -4.45,9.6 -2.84,15.09 0.86,2.92 2.14,4.44 3.59,6.02 0.4,0.44 0.72,0.83 1.11,1.25 0.71,0.75 2.79,3.27 3.09,4.06z"/>
   <path class="fil1" d="M56.59 133.78c-0,0.46 -0.07,1.9 -0.22,2.29 -0.26,0.65 -0.7,0.74 -1.44,0.74 -1.35,-0 -2.92,-0.08 -4.24,0.02 0.7,0.6 4.4,1.05 5.07,1.08 0.3,0.57 0.93,2.53 1.14,3.28 -1.2,-1.03 -1.34,-1.3 -2.87,-2.12 -4.37,-2.35 -7.33,-2.09 -12.24,-2.25 0.34,0.62 2.2,1.82 2.97,2.33 3.55,2.34 8.28,3.25 12.43,2.79 0.37,0.86 1.13,3.41 1.33,4.46 -0.28,-0.13 -2.24,-2.38 -6.16,-3.44 -2.81,-0.76 -5.56,-0.97 -8.48,-0.82 0.33,0.5 2.15,1.8 2.86,2.24 3.83,2.33 7.64,3.03 12,2.63l1.03 4.25c-0.41,-0.16 -0.25,-0.18 -0.56,-0.48 -0.22,-0.21 -0.34,-0.25 -0.58,-0.45 -3.15,-2.54 -7.38,-2.89 -11.12,-2.84 0.22,0.4 0.8,0.76 1.17,1.04 2.27,1.75 4.54,2.87 7.32,3.29 1.46,0.22 2.49,0.06 3.89,0.09l0.65 3.03c0.2,0.38 0.42,0.75 0.63,1.18 0.16,-0.3 -0.08,-0.39 0.97,-0.87l-0 -2.65c-0.53,0.83 -0.62,1.89 -0.98,2.72l-0.79 -3.5c0.38,-0.13 0.76,-0.5 1.04,-0.77 0.36,-0.34 0.72,-0.44 0.73,-1.2 0.03,-1.18 0.05,-2.91 -0.02,-4.06 -0.25,0.25 -0.98,1.77 -1.17,2.27 -0.35,0.93 -0.52,1.66 -0.8,2.66l-0.98 -3.79c0.36,-0.15 1.25,-0.95 1.58,-1.23 0.16,-0.14 0.16,-0.18 0.32,-0.34 0.15,-0.15 0.26,-0.21 0.4,-0.36 0.17,-0.18 0.64,-0.65 0.67,-0.86l0 -5.39 -0.17 0.1c-0.32,1.02 -1.7,1.96 -2.98,7.16 -0.22,-0.33 -1.22,-3.86 -1.25,-4.01l1.39 -1.11c0.19,-0.15 0.2,-0.21 0.38,-0.38 0.14,-0.14 0.28,-0.23 0.41,-0.33 0.24,-0.52 0.56,-0.56 0.87,-1.02 0.25,-0.37 0.1,-0.24 0.42,-0.53 0.23,-0.21 0.22,-0.28 0.46,-0.38 0.17,-0.37 0.14,-0.39 0.44,-0.61l0.02 -6.1c-0.87,0.59 -3.74,5.53 -4.06,7.12 -0.34,-0.11 -0.84,-1.27 -0.88,-1.42 0.2,-0.34 0.46,-0.59 0.72,-0.89l1.4 -1.94c0.98,-1.67 1.88,-3.27 2.53,-5.21l0.27 -0.61 0.01 -5.8c-0.63,0.43 -2.72,3.98 -3.22,4.94 -1.67,3.22 -1.37,3.18 -2.25,5.84l-0.05 0.14c-0.01,0.02 -0.02,0.05 -0.03,0.07z"/>
   <path class="fil6" d="M105.72 86.49c-1.03,1.15 -1.89,1.97 -3.29,2.78 -1.26,0.73 -2.67,1.3 -4.37,1.47 -0.15,0.37 -0.36,0.73 -0.52,1.11 -2.8,7.04 -0.26,13.38 5.75,15.35 0.1,0.03 0.18,0.05 0.27,0.1 0.33,0.17 0.11,0.04 0.23,0.17 1.39,-0.88 2.55,-1.58 3.46,-3.44 2.58,-5.29 0.94,-12.96 -1.43,-17.45 0.08,-0.1 -0.06,-0.05 0.2,-0.19l-0.3 0.11z"/>
   <path class="fil2" d="M26.15 84.34c2.94,0 2.82,-0.76 3.77,-1.02 0.28,0.22 1.38,1.72 1.69,2.11 0.33,0.41 0.53,0.6 0.84,1.06 0.69,1 1.2,1.22 1.97,0.32 0.78,-0.92 0.86,-1.31 -0.09,-2.39l-1.26 -1.59c-0.46,-0.66 -0.86,-1.02 -1.22,-1.64 3.29,-5.7 -0.53,-12 -5.09,-12 -1.47,0 -1.81,0.11 -3.06,0.73 -1.34,0.66 -2.58,2.24 -3.17,3.75 -0.17,0.43 -0.3,0.81 -0.4,1.36 -0.25,1.32 -0.27,1.99 -0.03,3.31 0.6,3.33 3.22,6.01 6.05,6.01z"/>
   <path class="fil3" d="M62.13 122.8l-0.01 5.8 0.02 2.95 -0.02 6.1 0.01 1.12 -0 5.39c-0.03,0.21 -0.5,0.68 -0.67,0.86 -0.14,0.15 -0.25,0.21 -0.4,0.36 -0.15,0.15 -0.16,0.19 -0.32,0.34 -0.32,0.29 -1.22,1.08 -1.58,1.23l0.98 3.79c0.28,-1 0.45,-1.73 0.8,-2.66 0.19,-0.51 0.92,-2.03 1.17,-2.27 0.08,1.15 0.05,2.88 0.02,4.06 -0.02,0.76 -0.38,0.86 -0.73,1.2 -0.28,0.26 -0.66,0.63 -1.04,0.77l0.79 3.5c0.35,-0.83 0.45,-1.88 0.98,-2.72l0 2.65c-1.05,0.49 -0.81,0.57 -0.97,0.87l1.43 2.73 2.6 0.01c0.13,-0.99 0.03,-19.99 0.03,-21.54 0,-2.36 -0.14,-20.99 0.05,-21.56 -0.27,-0.35 -0.51,-0.62 -0.78,-0.94 -0.26,-0.3 -0.59,-0.62 -0.84,-0.96l-1.54 -2.07 0.02 10.98z"/>
   <path class="fil7" d="M77.32 68.14c0.62,0.22 25.83,0.08 27.17,0.08 2.75,0 26.61,0.14 27.16,-0.09 0.09,-0.46 0.1,-2.11 -0.01,-2.55 -0.59,-0.21 -25.82,-0.07 -27.15,-0.07 -0.74,0 -26.37,-0.12 -27.17,0.05 -0.1,0.5 -0.09,2.09 0,2.59z"/>
   <path class="fil7" d="M77.32 75.77c0.62,0.22 25.83,0.08 27.17,0.08 2.75,0 26.61,0.14 27.16,-0.09 0.09,-0.47 0.1,-2.1 -0.01,-2.55 -0.59,-0.21 -25.82,-0.07 -27.15,-0.07 -0.74,0 -26.37,-0.12 -27.17,0.05 -0.09,0.5 -0.09,2.09 0,2.59z"/>
   <path class="fil7" d="M131.6 60.54c0.18,-0.36 0.17,-2.24 0.01,-2.56 -0.2,-0.22 -43,-0.1 -50.89,-0.1 -0.86,0 -2.62,-0.11 -3.38,0.05 -0.15,0.51 -0.08,1.43 -0.08,2 0,0.5 -0.07,0.6 0.31,0.68l39.91 -0c1.73,0 13.51,0.18 14.13,-0.06z"/>
   <path class="fil0" d="M55.28 165.63c-5.86,1.25 -6.35,8.94 -3.75,11.87 0.81,0.91 1.29,1.63 2.81,2.15 1.94,0.66 3.96,0.36 5.51,-0.98 1.78,-1.54 2.84,-3.91 2.56,-6.84 -0.34,-3.6 -3.52,-6.97 -7.13,-6.19z"/>
   <path class="fil8" d="M94.05 107.35c0.06,1.27 -0.02,2.24 0.14,3.53 0.42,1.02 0.47,1.54 1.27,2.15 0.22,-0.33 1.38,-1.1 1.68,-1.32 0.6,-0.42 1.17,-0.85 1.73,-1.25 0.61,-0.45 1.16,-0.82 1.72,-1.26 0.34,-0.26 1.53,-1.16 1.86,-1.23l1.36 -0.51c-0.12,-0.13 0.1,-0 -0.23,-0.17 -0.09,-0.04 -0.17,-0.06 -0.27,-0.1 -6.01,-1.96 -8.55,-8.31 -5.75,-15.35 0.15,-0.38 0.36,-0.74 0.52,-1.11 1.69,-0.17 3.11,-0.74 4.37,-1.47 1.4,-0.81 2.27,-1.63 3.29,-2.78 -0.56,0.16 -1.17,0.49 -1.76,0.69 -2.32,0.78 -3.76,0.64 -6.14,0.5l-0.88 1.64c-0.81,1.31 -2.41,3.03 -3.66,3.42l0.36 4.36 -0.67 0.19c-0.98,-4.76 -3.42,-3.57 -3.64,-1.23 -0.16,1.77 0.71,4.08 1.84,4.94 0.22,0.17 0.46,0.32 0.69,0.42 1.28,0.57 0.44,-0.14 1.06,1.82 0.42,1.32 1.07,1.93 1.15,2.4 0.04,0.24 0.15,1.42 -0.03,1.71z"/>
   <path class="fil7" d="M124.13 179.21l0 -2.78c-1.49,0.15 -9.48,0.02 -11.65,0.02 -9.77,0 -19.54,0 -29.3,0 -1.1,0 -5.07,-0.16 -5.85,0.07 -0.1,0.53 -0.12,2.08 0.02,2.58 0.61,0.21 37.25,0.07 40.93,0.07 1.63,0 4.35,-0.19 5.86,0.03z"/>
   <path class="fil7" d="M124.32 186.82c-0.28,-1.02 -0.16,-1.6 -0.2,-2.75l-46.83 0.02c-0.05,0.62 -0.1,2.14 0.04,2.64 0.6,0.21 22.25,0.07 23.47,0.07 7.8,0 15.73,-0.17 23.52,0.01z"/>
   <path class="fil0" d="M141.03 175.47c0.59,-0.17 8.15,-4.43 9.35,-5.05 0.71,-0.36 2.62,-1.26 3.09,-1.75 -0.47,-0.5 -6.33,-3.42 -7.69,-4.25 -0.51,-0.32 -1.04,-0.53 -1.55,-0.85 -0.58,-0.36 -2.64,-1.53 -3.2,-1.7l0 13.6z"/>
   <path class="fil4" d="M109.03 170.33c3.11,0.02 13.53,-1.44 14.58,-3.8 0.87,-1.96 -4.32,-3.2 -5.73,-3.51 -2.65,-0.58 -5.29,-0.9 -8.03,-1.14l0.49 8.09 -1.31 0.37z"/>
   <path class="fil0" d="M141.08 48.42c1.26,0.89 2.67,1.71 3.96,2.54 0.3,0.19 0.64,0.37 0.97,0.6 0.56,0.39 0.44,2.43 2.52,2.5 3.2,0.1 3.17,-5.32 0.17,-5.44 -1.13,-0.05 -1.61,0.58 -2.11,1.19 -0.83,-0.46 -1.68,-1.04 -2.48,-1.56 -0.36,-0.23 -0.89,-0.59 -1.25,-0.79 -0.27,-0.16 -1.1,-0.67 -1.22,-0.79l-0.03 -0.58 5.22 -2.78c0.69,0.87 1.72,1.18 2.68,0.69 0.61,-0.31 0.94,-0.7 1.22,-1.37 0.15,-0.38 0.23,-0.75 0.22,-1.22 -0.03,-1 -0.4,-1.53 -0.82,-1.97 -1.24,-1.3 -3.6,-0.69 -3.87,1.71 -0.09,0.85 -0.07,0.35 -1.84,1.39 -1.04,0.61 -2.18,1.18 -3.24,1.74 -0.66,0.35 -0.53,-0.33 -1.69,-0.45 -0.81,-0.08 -1.41,0.27 -1.83,0.74 -1.94,2.12 0.24,5.78 2.67,4.43 0.4,-0.22 0.43,-0.35 0.75,-0.58z"/>
   <path class="fil2" d="M166.35 94.72c0,0.65 0.08,0.89 0.09,1.42 0.01,0.59 -0.1,1.05 0.28,1.2l16.65 2.77c0,-2.05 -0.17,-3.81 -0.17,-5.8 -5.41,0 -11.41,0.41 -16.85,0.41z"/>
   <path class="fil1" d="M130.37 103.99c0.05,-0.51 -0.3,-1.82 -0.39,-2.45 -0.3,-0.92 -0.48,-3.91 -0.51,-4.99 -0.02,-0.7 0.16,-5.17 0.16,-5.2 -1.9,0.2 -3.46,0.74 -4.52,1.94 -2.61,2.96 -2.42,7.32 0.31,9.61 2.02,1.7 3.47,1 4.95,1.08z"/>
   <path class="fil4" d="M129.99 101.53c0.09,0.64 0.44,1.94 0.39,2.45 0.18,-0.04 0.43,-0.09 0.71,-0.11l3.24 -0.18 1.83 0.06 2.49 0.3 0.11 0.02c0.31,0.16 1.16,0.33 1.58,0.46 0.54,0.17 1.07,0.38 1.53,0.58 0.38,0.19 0.85,0.4 1.24,0.58 0.45,0.21 0.76,0.41 1.19,0.66l2.4 1.49c-0.62,-1.82 -1.16,-3.18 -1.65,-5.21 -1.2,-4.94 -1.69,-10.5 -1.19,-15.66 0.07,-0.71 0.38,-2.44 0.35,-2.98 -0.27,1.31 -0.64,2.64 -0.91,4.02 -1,5.08 -0.83,9.06 -0.39,14.11 -0.84,-0.04 -2.08,-0.41 -3,-0.53 -2.37,-0.31 -4.41,-0.41 -6.81,-0.24 -0.61,0.04 -2.73,0.36 -3.11,0.18z"/>
   <path class="fil1" d="M139.98 87.35c0.47,-0.14 1.97,-1.32 2.15,-1.69l0 -25.24c-0.76,-0.09 -1.5,-0.33 -2.18,-0.62l0.03 27.55z"/>
   <path class="fil3" d="M62.12 56.36c0.65,-0.8 0.69,-0.81 1.88,-0.81 0,2.31 0,4.61 0,6.92 0,1.41 0.16,5.87 -0.06,6.93 0.17,0.35 0.37,0.61 0.58,0.96 0.23,0.38 0.39,0.75 0.7,1.01 0,-2.91 0.12,-27.42 -0.06,-28.08l-3.03 0.05 -0.02 13.02z"/>
   <path class="fil5" d="M95.12 36.63l0.02 1.69c0.61,0.14 16.17,0.15 17.51,0.03l0.01 -1.73c0,-0.37 0.06,-0.46 -0.26,-0.46l-17.02 0c-0.28,0 -0.25,0.14 -0.25,0.46z"/>
   <path class="fil2" d="M165.29 85.56c0.08,0.41 0.29,0.99 0.44,1.32 0.32,-0.03 0.42,-0.11 0.68,-0.23 0.26,-0.12 0.46,-0.18 0.71,-0.29 0.44,-0.19 0.94,-0.41 1.41,-0.61l8.43 -3.55c-0.1,-0.51 -1.37,-3.35 -1.49,-3.97 -0.39,0.11 -10,7.19 -10.18,7.33z"/>
   <path class="fil3" d="M139.98 87.35l-0.03 -27.55 -1.22 -0.57 0.01 28.96c0.32,-0.18 1.03,-0.55 1.23,-0.84z"/>
   <path class="fil9" d="M146.48 100.32c0.47,1.86 0.8,3.42 1.41,5.12 0.36,1.01 1.53,3.87 2.06,4.29 0.65,-0.53 1.21,-3.88 1.33,-5.11 0.11,-1.03 0.16,-2.14 0.15,-3.18 -0,-0.83 -0.18,-2.5 -0.12,-3.14l-0.28 -0.02c0.03,0.29 -0.44,0.36 -1.02,0.61 -0.39,0.17 -0.79,0.33 -1.16,0.49 -0.6,0.25 -1.83,0.88 -2.39,0.95z"/>
   <path class="fil2" d="M165.2 105.5l-0.09 0.1c-0.14,0.69 -0.4,0.48 0.09,1.07 0.38,0.26 0.47,0.4 0.8,0.75 0.28,0.29 0.4,0.37 0.67,0.72l0.63 0.66c0.28,0.19 0.8,0.68 0.98,0.97 0.13,0.12 0.19,0.19 0.32,0.32 0.14,0.12 0.21,0.17 0.34,0.32l1.63 1.67c0.44,0.43 2.72,2.85 3.13,2.98l1.58 -3.05c-0.25,-0.2 -6.2,-4.77 -6.41,-5.09 0.21,-0.06 0.28,-0.13 0.46,-0.28 0.19,-0.15 0.26,-0.15 0.33,-0.44 -0.32,-0.03 -0.85,-0.16 -1.16,-0.19 -0.73,-0.08 -0.55,0.27 -1.04,-0.1 -0.34,-0.26 -1.4,-1.03 -1.58,-1.33 -0.32,-0.04 -0.09,0.02 -0.34,-0.09 -0.11,0.36 -0.26,0.67 -0.36,1z"/>
   <path class="fil5" d="M46.62 82.81c0.23,-0.48 0.66,-0.67 0.99,-0.95 0.39,-0.32 0.67,-0.56 1.02,-0.85 0.52,-0.43 1.59,-1.44 2.08,-1.68l-3.25 -5.26 -3.58 2.97c-0.23,0.18 -0.3,0.31 -0.54,0.39 0.09,0.43 1.29,2.26 1.59,2.73 0.56,0.88 1.09,1.84 1.68,2.66z"/>
   <path class="fil5" d="M59.4 71.9c0.33,-0.2 0.62,-0.49 0.96,-0.78 0.35,-0.29 0.66,-0.56 1.02,-0.86 0.68,-0.56 1.32,-1.09 1.97,-1.67 -0.12,-0.38 -0.5,-0.9 -0.71,-1.23 -0.23,-0.37 -0.58,-0.79 -0.7,-1.23l-1.67 -2.64c-0.35,0.1 -0.28,0.11 -0.51,0.32l-3.52 2.94c0.12,0.57 2.3,3.86 2.74,4.55l0.3 0.46c0.08,0.11 0.07,0.09 0.12,0.15z"/>
   <path class="fil6" d="M95.45 113.03c1.14,1.24 3.77,1.97 5.8,1.74 1.04,-0.12 2.07,-0.52 2.31,-1.5 0.3,-1.24 -0.68,-2.35 -1.04,-2.9 -0.22,-0.39 -0.11,-1.85 -0.08,-2.4 -0.32,0.06 -1.51,0.96 -1.86,1.23 -0.56,0.44 -1.11,0.81 -1.72,1.26 -0.56,0.41 -1.12,0.83 -1.73,1.25 -0.31,0.22 -1.46,0.99 -1.68,1.32z"/>
   <path class="fil1" d="M62.12 56.36c-0.39,0.94 -0.18,3.44 -0.18,4.78 0,1.66 -0.01,3.32 0,4.98 0.12,0.43 0.46,0.85 0.7,1.23 0.21,0.33 0.59,0.85 0.71,1.23 0.22,0.22 0.4,0.56 0.59,0.82 0.21,-1.06 0.06,-5.52 0.06,-6.93 0,-2.31 0,-4.61 0,-6.92 -1.19,0 -1.23,0.02 -1.88,0.81z"/>
   <path class="fil9" d="M62.12 88.57c1.69,-0.43 4.48,-5.18 1.73,-9.5l-1.73 -2.74 0 12.24z"/>
   <path class="fil2" d="M154.15 14.24l0 2.14c-1.4,0 -2.81,-0.33 -2.81,1.02 0,1.24 1.5,0.91 2.81,0.91l0 2.14c0,1.61 1.67,1.4 1.67,0.2l0 -2.34c1.62,0 2.81,0.33 2.81,-1.02 0,-1.23 -1.54,-0.92 -2.81,-0.92 0,-1.21 0.26,-3.26 -0.7,-3.26 -0.66,0 -0.96,0.36 -0.96,1.12z"/>
   <path class="fil3" d="M163.8 129.41c-0.12,-0.28 -0.23,-1.43 -0.3,-1.89 -0.1,-0.62 -0.27,-1.31 -0.32,-1.87 -0.34,0.1 -0.88,0.63 -1.25,0.89 -6.17,4.42 -9.89,3.61 -10.51,3.99 -0.35,0.48 -1.04,2.72 -1.21,3.45 0.26,-0.14 1.22,-1.17 2.64,-1.99 2.01,-1.16 4.54,-1.96 6.83,-2.26 0.89,-0.12 3.64,-0.16 4.11,-0.32z"/>
   <path class="fil6" d="M131.41 105.57c-0.29,0.42 -0.1,0.47 -0.55,0.79 -0.35,0.25 -0.36,0.24 -0.56,0.68 -0.37,0.77 -0.36,1.32 -0.37,2.31 0.25,0.29 0.39,0.75 0.6,1.07 0.15,0.23 0.57,0.73 0.78,0.93 0.59,0.56 1.33,0.81 2.26,1.01 0.44,-0.18 1.16,-1.05 1.41,-1.43 0.38,-0.57 0.72,-1.22 0.99,-2.01 0.59,-1.69 0.77,-3.38 0.2,-5.17l-1.83 -0.06c0.16,1.15 0.47,2.38 0.7,3.55 0.37,1.88 0.72,2.48 -0.53,2.81 -1.46,0.39 -2.01,0.92 -2.38,-0.97 -0.23,-1.19 -0.5,-2.34 -0.7,-3.52z"/>
   <path class="fil9" d="M145.65 93.12l-0.04 -1.13 4.94 1.38c-0.37,-0.7 -1.05,-4.54 -2.8,-6.5 -0.37,-0.41 -1.1,-1.11 -1.84,-0.97 -0.14,1.08 -0.61,6.48 -0.26,7.21z"/>
   <path class="fil1" d="M131.08 103.88l0.33 1.69c0.2,1.18 0.47,2.33 0.7,3.52 0.36,1.89 0.91,1.36 2.38,0.97 1.25,-0.33 0.9,-0.93 0.53,-2.81 -0.23,-1.17 -0.53,-2.41 -0.7,-3.55l-3.24 0.18z"/>
   <path class="fil6" d="M53.79 84.34c0.18,0.5 0.79,1.31 1.08,1.8 0.96,1.63 2.17,2.82 3.98,3.11 0.39,0.06 0.97,0.14 1.25,-0.02 0.01,-0.6 -0.25,-1.62 -0.59,-2.05 -0.4,-0.51 -0.45,-0.05 -0.81,-0.9 -0.68,-1.58 -2.49,-3.98 -4.15,-2.89 -0.46,0.3 -0.48,0.57 -0.75,0.95z"/>
   <path class="fil1" d="M145.35 143.33l1.33 -1.21c-0.26,-1.65 -1.85,-4.2 -2.69,-5.42 -0.71,-1.03 -1.58,-1.86 -2.19,-2.57 -0.06,1.06 -0.01,2.25 -0.01,3.32 -0.01,0.71 -0.09,0.81 0.22,1.35 1.07,1.85 0.9,1.42 1.89,2.9 0.46,0.7 1.07,1.05 1.44,1.64z"/>
   <path class="fil3" d="M62.16 94.72l-0.04 2.54c0.17,0.81 1.67,3.62 2.19,4.49 0.14,0.23 0.26,0.41 0.4,0.65 0.17,0.28 0.25,0.49 0.5,0.71l0.01 -9.93c-0.51,0.26 -0.93,0.59 -1.49,0.87 -0.33,0.17 -1.41,0.53 -1.58,0.67z"/>
   <path class="fil2" d="M16.85 105.6l0 2.04c-1,0 -2.54,-0.26 -2.54,0.91 0,1.18 1.54,0.92 2.54,0.92 0,1.43 -0.25,2.83 0.72,2.89 0.11,0.01 0.34,-0.06 0.47,-0.18 0.47,-0.42 0.3,-1.54 0.3,-2.71 0.92,0 2.55,0.28 2.55,-0.92 0,-1.19 -1.63,-0.91 -2.55,-0.91l0 -2.04c0,-1.13 -1.49,-1.13 -1.49,0z"/>
   <path class="fil2" d="M40.18 89.83l0 2.14c-1.33,0 -2.54,-0.3 -2.54,0.81 0,1.22 1.4,0.91 2.54,0.91 0,1.39 -0.28,2.98 0.78,2.92 0.96,-0.05 0.71,-1.59 0.71,-2.92 1.03,0 2.55,0.3 2.55,-0.91 0,-1.12 -1.52,-0.81 -2.55,-0.81 0,-1.06 0.24,-2.95 -0.7,-2.95 -0.42,0 -0.79,0.29 -0.79,0.81z"/>
   <path class="fil2" d="M199.24 78.74l0 2.04c-1.03,0 -2.54,-0.31 -2.54,0.91 0,1.12 1.52,0.81 2.54,0.81 0,1.38 -0.25,2.95 0.79,2.95 0.96,0 0.7,-1.4 0.7,-2.95 1.33,0 2.54,0.3 2.54,-0.81 0,-1.19 -1.42,-0.91 -2.54,-0.91l0 -2.04c0,-1.13 -1.49,-1.13 -1.49,0z"/>
   <path class="fil2" d="M165.03 60.63l0 2.14c-1.4,0 -2.54,-0.3 -2.54,0.91 0,1.11 1.21,0.81 2.54,0.81 0,1.78 -0.27,2.95 0.79,2.95 0.93,0 0.7,-2.03 0.7,-2.95l1.75 0c0.99,0 1.1,-1.73 -0.17,-1.73l-1.58 0c0,-0.99 0.24,-2.95 -0.79,-2.95 -0.15,0 -0.7,0.21 -0.7,0.81z"/>
   <path class="fil2" d="M31.32 51.38l0 1.73 -1.67 0c-1.05,0 -1.11,1.73 -0.09,1.73l1.75 0c0,1.28 -0.22,2.95 0.79,2.95 0.96,0 0.7,-1.4 0.7,-2.95 1.58,0 2.54,0.31 2.54,-0.91 0,-1.1 -1.39,-0.81 -2.54,-0.81 0,-1.37 0.25,-2.95 -0.7,-2.95 -0.19,0 -0.47,0.19 -0.58,0.35 -0.13,0.18 -0.21,0.57 -0.21,0.87z"/>
   <path class="fil2" d="M2.55 68.88l0 2.14c-1.81,0 -2.55,-0.3 -2.55,1.02 0,0.96 1.84,0.71 2.55,0.71 0,1.19 -0.26,2.95 0.7,2.95 1.03,0 0.79,-1.88 0.79,-2.95l1.58 0c1.27,0 1.16,-1.73 0.17,-1.73l-1.75 0c0,-1.02 0.22,-2.95 -0.7,-2.95 -0.42,0 -0.79,0.29 -0.79,0.81z"/>
   <path class="fil2" d="M61.41 0.81l0 2.14c-1.81,0 -2.54,-0.3 -2.54,1.02 0,0.94 1.86,0.71 2.54,0.71 0,1.53 -0.2,2.34 0.33,2.78 0.21,0.17 0.3,0.18 0.55,0.09 0.82,-0.3 0.61,-1.57 0.61,-2.86 1.17,0 2.33,0.27 2.5,-0.77 0.21,-1.29 -1.45,-0.96 -2.5,-0.96 0,-1.3 0.24,-2.95 -0.79,-2.95 -0.42,0 -0.7,0.32 -0.7,0.81z"/>
   <path class="fil1" d="M56.59 120.76c-0.13,0.58 -0.14,8.22 0,8.5 0.12,-0.47 0.37,-0.75 0.55,-1.24 0.84,-2.29 1.72,-4.98 1.82,-7.56 0.03,-0.81 0.29,-3.08 0,-3.76 -0.45,0.38 -1.76,2.9 -2.19,3.76l-0.18 0.3z"/>
   <path class="fil2" d="M41.76 121.99l7.78 -7.93c-1.31,0.87 -2.56,1.95 -3.85,2.83 -0.56,0.38 -3.68,2.82 -3.94,2.82 -0.28,0 -3.34,-2.41 -3.88,-2.79 -0.65,-0.45 -1.28,-0.98 -1.93,-1.42 -0.65,-0.45 -1.34,-0.96 -1.96,-1.44 0.21,0.19 0.2,0.21 0.42,0.47l5.38 5.47c0.24,0.21 0.24,0.26 0.45,0.49 0.19,0.2 0.36,0.29 0.55,0.49l0.98 1.01z"/>
   <path class="fil10" d="M145.65 93.12c-0.01,0.3 0.13,3.54 0.36,3.96 0.05,-0.38 -0.18,-0.12 0.27,-0.29 0.09,-0.03 0.41,-0.08 0.52,-0.1l3.15 -0.6c-0.07,-1.15 0.04,-2.17 0.71,-2.56 -0.08,-0.15 0.04,-0.09 -0.12,-0.16l-4.94 -1.38 0.04 1.13z"/>
   <path class="fil4" d="M83.54 168.8l0.06 -5.47c-1.3,0.51 -4.41,1.2 -4.48,2.71 -0.06,1.41 3.08,2.53 4.42,2.76z"/>
   <path class="fil1" d="M51.77 155.25c0.25,-0.41 0.45,-0.61 1.07,-0.6 0.5,-0.23 5.29,0.02 6.38,-0.08 -0.65,-0.8 -3.91,-1.62 -5.13,-1.72 -1.85,-0.16 -4.29,-0.18 -6.06,0.3 0.5,0.49 2.9,2.08 3.75,2.1z"/>
   <path class="fil3" d="M148.53 120.86c0.15,0.64 0.63,1.35 0.87,2.04 0.25,0.7 0.51,1.42 0.75,2.18 0.5,1.56 0.77,3.4 0.78,5.14 0.33,-0.75 0.67,-1.61 0.95,-2.42 0.23,-0.65 0.85,-1.85 0.88,-2.5 -0.58,-0.57 -1.3,-1.85 -1.76,-2.71 -0.21,-0.4 -1.2,-2.84 -1.42,-3.06 -0.17,0.26 -0.32,0.41 -0.5,0.66 -0.24,0.33 -0.23,0.43 -0.55,0.68z"/>
   <path class="fil3" d="M162.57 123.2c-0.04,-0.43 -0.23,-1.11 -0.35,-1.44 -0.72,0.25 -2.4,1.9 -6.22,2.88 -0.63,0.16 -2.06,0.29 -2.48,0.47 -0.28,0.33 -1.58,3.64 -1.69,4.24 0.26,-0.16 0.13,-0.07 0.35,-0.29 0.11,-0.12 0.15,-0.17 0.27,-0.3 2.21,-2.29 3.98,-3.37 7.04,-4.54l3.09 -1.01z"/>
   <path class="fil5" d="M146.01 97.08c-0.06,0.72 0.33,2.46 0.46,3.24 0.56,-0.07 1.79,-0.7 2.39,-0.95 0.36,-0.16 0.77,-0.32 1.16,-0.49 0.58,-0.25 1.05,-0.32 1.02,-0.61 -0.27,-0.11 -0.3,-0.15 -0.49,-0.4 -0.14,-0.19 -0.19,-0.28 -0.28,-0.49 -0.18,-0.44 -0.21,-0.81 -0.32,-1.29l-3.15 0.6c-0.11,0.02 -0.43,0.06 -0.52,0.1 -0.45,0.18 -0.22,-0.08 -0.27,0.29z"/>
   <path class="fil3" d="M143.43 129.1c0.1,0.38 0.17,0.31 0.4,0.57 0.16,0.17 0.22,0.32 0.35,0.51l0.77 1.04c0.43,0.65 0.97,1.45 1.34,2.21 1.96,4.01 1.45,4.08 1.96,5.34l1.18 -4.08c-0.23,-0.31 -0.51,-0.46 -0.81,-0.72l-1.17 -1.09c-0.93,-1.01 -1.52,-1.62 -2.41,-2.79 -0.46,-0.62 -0.93,-1.6 -1.24,-1.71 -0.07,0.29 -0.21,0.48 -0.37,0.7z"/>
   <path class="fil3" d="M151.91 116.69c0.18,1.1 0.73,2.39 0.92,3.76 0.24,1.75 0.21,2.66 0.17,4.4l2.1 -4.65 -1.28 -2.11c-0.24,-0.42 -0.95,-2 -1.17,-2.21l-0.75 0.82z"/>
   <path class="fil1" d="M144.06 147.11c0.17,-0.3 0.5,-1.59 0.62,-2.03 0.22,-0.75 -0.59,-1.79 -1.14,-2.56l-1.73 -2.09c-0.03,0.63 -0.1,4.24 0.03,4.57 0.06,0.17 1.74,1.84 2.22,2.1z"/>
   <path class="fil3" d="M59.93 140.19c-0.03,0.39 -0.31,1.02 -0.44,1.32 -0.24,-0.2 -0.21,-0.3 -0.35,-0.61l-1.39 1.11c0.03,0.16 1.03,3.69 1.25,4.01 1.27,-5.2 2.66,-6.14 2.98,-7.16 -0.09,-0.26 -0.18,-0.38 -0.29,-0.61 -0.24,0.1 -0.23,0.17 -0.46,0.38 -0.31,0.28 -0.17,0.15 -0.42,0.53 -0.31,0.46 -0.63,0.5 -0.87,1.02z"/>
   <path class="fil3" d="M145.82 125.03c0.11,0.34 0.92,1.49 1.22,1.94 0.76,1.17 1.56,2.86 2.04,4.25 0.18,0.52 0.53,2.13 0.73,2.43l0.96 -2.92 -0.54 -0.63c-1.14,-1.28 -2.01,-2.49 -2.91,-4.05 -0.24,-0.41 -0.73,-1.48 -0.97,-1.74 -0.17,0.16 -0.37,0.52 -0.52,0.72z"/>
   <path class="fil3" d="M161.17 118.99c-0.06,-0.35 -0.29,-0.78 -0.44,-1.04 -0.61,0.22 -1.29,0.64 -1.97,0.92 -0.64,0.27 -1.43,0.55 -2.11,0.7 -0.87,0.2 -0.75,0.09 -0.97,0.52l-1.41 3.25c0.39,-0.16 0.17,-0.02 0.46,-0.38 0.44,-0.55 2.18,-1.83 2.76,-2.2 1.27,-0.81 2.32,-1.18 3.68,-1.78z"/>
   <path class="fil1" d="M72.28 60.55c0.43,0.09 2.43,0.14 2.83,0 0.24,-0.46 0.15,-1.58 0.12,-2.17 -0.04,-0.69 -0.09,-0.49 -1.52,-0.49 -1.28,0 -1.45,-0.19 -1.48,0.5 -0.02,0.54 -0.01,1.71 0.06,2.16z"/>
   <path class="fil1" d="M72.27 75.69c0.36,0.28 2.38,0.25 2.89,0.06 0.1,-0.48 0.1,-2.09 -0,-2.57 -0.31,-0.09 -2.27,-0.13 -2.61,-0.07 -0.37,0.07 -0.33,-0.07 -0.32,1.14 0,0.46 -0.05,1.02 0.04,1.43z"/>
   <path class="fil4" d="M149.96 96.09c0.1,0.49 0.14,0.86 0.32,1.29 0.08,0.2 0.13,0.3 0.28,0.49 0.18,0.25 0.21,0.29 0.49,0.4l0.28 0.02c1.36,-0.55 0.87,-5.08 -0.64,-4.76 -0.68,0.38 -0.78,1.41 -0.71,2.56z"/>
   <path class="fil1" d="M72.23 177.02c0,2.24 -0.15,2.16 0.5,2.16 0.8,0 1.62,0.05 2.42,-0.05 0.12,-0.84 0.09,-1.74 0.02,-2.59 -0.33,-0.11 -2.04,-0.12 -2.53,-0.09 -0.42,0.03 -0.42,0.05 -0.42,0.57z"/>
   <path class="fil1" d="M72.28 68.04l0.21 0.14c0.02,0.01 0.05,0.02 0.08,0.03 0.06,0.02 0.27,0.02 0.35,0.02 0.55,0 1.87,0.03 2.27,-0.08 0.07,-0.53 0.09,-2.09 -0.03,-2.58 -0.32,-0.11 -2.24,-0.14 -2.6,-0.07 -0.48,0.09 -0.33,0.57 -0.32,1.14 0,0.44 -0.06,1.04 0.05,1.4z"/>
   <path class="fil1" d="M72.28 184.12c-0.09,0.84 -0.05,1.19 -0.05,2.05 0,0.55 -0.01,0.64 0.5,0.64l2.4 -0.05c0.16,-0.85 0.1,-1.74 0.05,-2.6 -0.28,-0.08 -2.68,-0.15 -2.9,-0.03z"/>
   <path class="fil2" d="M55.97 45.07c0,2.2 2.79,2.11 2.79,0 0,-2.11 -2.79,-2.16 -2.79,0z"/>
   <path class="fil2" d="M38.52 45.07c0,1.55 1.59,2.09 2.35,1.2 0.96,-1.12 0.2,-2.83 -0.95,-2.83 -0.76,0 -1.4,0.74 -1.4,1.63z"/>
   <path class="fil2" d="M106.6 8.75c0,2.07 2.67,2.18 2.76,0.08 0.02,-0.4 -0.12,-0.9 -0.33,-1.17 -0.79,-1.03 -2.44,-0.49 -2.44,1.1z"/>
   <path class="fil2" d="M188.36 102.75c0,2.11 2.81,2.06 2.81,0 0,-2.18 -2.81,-2.09 -2.81,0z"/>
   <path class="fil2" d="M12.37 95.12c1.84,0 1.84,-3.26 0,-3.26 -1.79,0 -1.79,3.26 0,3.26z"/>
   <path class="fil2" d="M89.14 8.75c0,2.01 2.66,2.21 2.79,0.08 0.02,-0.38 -0.17,-0.95 -0.35,-1.18 -0.82,-1.07 -2.44,-0.38 -2.44,1.1z"/>
   <path class="fil2" d="M175.91 38.56c0,2.32 2.81,1.95 2.81,0.2 0,-1.78 -1.62,-2.15 -2.35,-1.3 -0.2,0.23 -0.46,0.67 -0.46,1.1z"/>
   <path class="fil2" d="M192.31 122.49c0,2.49 3.43,1.69 2.69,-0.57 -0.57,-1.71 -2.69,-1.25 -2.69,0.57z"/>
   <path class="fil2" d="M1.23 133.07c0,2.05 2.13,2.27 2.66,0.74 0.25,-0.71 0.08,-1.3 -0.31,-1.74 -1,-1.14 -2.35,-0.05 -2.35,1z"/>
   <path class="fil2" d="M18.07 121.37c0,-2.02 -2.13,-2.27 -2.66,-0.74 -0.37,1.07 0.38,2.62 1.74,2.12 0.44,-0.16 0.92,-0.79 0.92,-1.38z"/>
   <path class="fil2" d="M179.86 58.19c0,1.52 1.3,2.15 2.14,1.46 1.83,-1.52 -0.66,-4.17 -1.83,-2.32 -0.14,0.22 -0.31,0.54 -0.31,0.86z"/>
   <path class="fil5" d="M92.24 35.85c-1.59,0.61 -0.86,3.42 0.81,2.88 1.49,-0.49 0.95,-3.55 -0.81,-2.88z"/>
   <path class="fil1" d="M141.8 149.8c0.59,0.44 0.79,0.37 1.49,0.35 0.49,-2.24 0.84,-1.55 -0.29,-2.93l-0.79 -0.91c-0.23,-0.31 -0.1,-0.24 -0.41,-0.41l0 3.9z"/>
   <path class="fil1" d="M148.8 144.67l0.72 0.01c0.46,-0.76 1.31,-2.16 1.65,-3.18 -0.53,0.15 -1.34,0.62 -1.79,0.91 -0.4,0.26 -0.51,0.17 -0.58,0.75 -0.06,0.51 -0.07,1.01 -0.01,1.51z"/>
   <path class="fil2" d="M11.76 135.61c0,1.25 1.76,1.42 1.76,-0.1 0,-1.32 -1.76,-1.17 -1.76,0.1z"/>
   <path class="fil2" d="M172.31 48.43l0 -0.1c0,-1.24 -1.68,-1.34 -1.73,0.01 -0.05,1.35 1.73,1.39 1.73,0.09z"/>
   <path class="fil2" d="M98.26 17.6c0,-1.44 -1.67,-1.4 -1.73,-0.09 -0.05,1.31 1.73,1.42 1.73,0.09z"/>
   <path class="fil2" d="M183.89 113.54c1.13,0 1.23,-2.04 0,-2.04 -1.17,0 -1.03,2.04 0,2.04z"/>
   <path class="fil2" d="M46.68 54.94c1.27,0 1.3,-2.03 0.09,-2.03 -0.7,0 -1.12,0.98 -0.63,1.65 0.07,0.1 0.46,0.38 0.55,0.38z"/>
  </g>
 </g>
</svg>
