<?xml version="1.0" encoding="UTF-8"?>
<!DOCTYPE svg PUBLIC "-//W3C//DTD SVG 1.1//EN" "http://www.w3.org/Graphics/SVG/1.1/DTD/svg11.dtd">
<!-- Creator: CorelDRAW (Versión de evaluación) -->
<svg xmlns="http://www.w3.org/2000/svg" xml:space="preserve" width="10.5833mm" height="10.5834mm" version="1.1" style="shape-rendering:geometricPrecision; text-rendering:geometricPrecision; image-rendering:optimizeQuality; fill-rule:evenodd; clip-rule:evenodd"
viewBox="0 0 116.14 116.15"
 xmlns:xlink="http://www.w3.org/1999/xlink"
 xmlns:xodm="http://www.corel.com/coreldraw/odm/2003">
 <defs>
  <style type="text/css">
   <![CDATA[
    .fil2 {fill:#0F2649}
    .fil9 {fill:#284681}
    .fil3 {fill:#436CBD}
    .fil6 {fill:#ACC1EC}
    .fil4 {fill:#C4D4F6}
    .fil8 {fill:#E97245}
    .fil0 {fill:#EBF1FF}
    .fil10 {fill:#F1C690}
    .fil1 {fill:#FBBA66}
    .fil7 {fill:#FFE8CA}
    .fil5 {fill:#FFFEFD}
   ]]>
  </style>
 </defs>
 <g id="Capa_x0020_1">
  <metadata id="CorelCorpID_0Corel-Layer"/>
  <g id="_323524920">
   <path class="fil0" d="M22.76 19.51c0.19,0.23 2.04,0.65 3.86,2.66 2.29,2.53 3.45,6.62 2.53,10.37 -0.63,2.59 -1.91,4.61 -3.81,6.13 -2.06,1.65 -4.86,2.27 -7.44,1.64 -5.05,-1.24 -6.51,-6.01 -6.77,-6.28l-1.1 0.82c-0.78,0.58 -1.97,1.5 -2.66,2.12 -0.19,0.17 -0.36,0.31 -0.55,0.48 -0.09,0.09 -0.13,0.14 -0.22,0.22 -0.12,0.11 -0.14,0.11 -0.27,0.25l-1.45 1.5c-1.87,2.18 -3.26,4.89 -3.98,7.93 -0.58,2.47 -0.87,5.07 -0.91,7.69l0 1c0.05,4.37 0.83,8.77 2.22,12.68 0.93,2.62 1.99,5.17 3.38,7.51 1.29,2.16 1.35,2.23 2.75,4.19 0.15,0.21 0.28,0.36 0.41,0.56 0.15,0.22 0.29,0.33 0.43,0.54 0.44,0.61 1.3,1.59 1.79,2.14l1.94 1.98c2.14,2.25 5.04,4.27 7.53,5.97l3.66 2.15 3.82 1.83c1.47,0.67 3.98,1.58 5.54,2.08 0.52,0.16 0.98,0.28 1.48,0.45 1.23,0.41 4.88,1.23 6.09,1.45 0.59,0.11 5.73,1.05 6.46,1.06 -0.03,-0.77 0.23,-1.12 0.92,-1.08 -0.3,-3.52 -3.68,-9.34 -5.07,-11.72 -0.53,-0.9 -1.06,-1.74 -1.58,-2.58 -0.47,-0.75 -1,-1.34 -1.67,-2.48 -3.68,-6.17 -4.3,-14 -1.85,-20.8 1.06,-2.95 2.79,-5.75 4.74,-7.75l1.02 -1.03c0.27,-0.24 0.82,-0.79 1.13,-0.94 -0.09,-0.4 -0.29,-0.86 -0.39,-1.32 -0.11,-0.49 -0.24,-1.02 -0.21,-1.54 -0.09,-0.19 -0.03,-0.23 -0.1,-0.43l-0.59 -0.91c-0.7,-1.23 -1.48,-2.95 -1.65,-4.47 -0.25,-0.75 -0.16,-1.81 -0.21,-2.64 -0.38,-0.77 -0.89,-0.52 -0.85,-1.91 0.03,-0.86 0.07,-1.69 0.15,-2.53 0.37,-4.01 1.48,-9 5.05,-10.69 0.8,-0.56 2.61,-0.6 3.69,-0.6 0.17,-0.06 0.17,-0.61 0.22,-0.99 0.05,-0.35 0.1,-0.68 0.15,-1.02 -0.06,-0.49 -0.09,-0.1 -0.39,-0.72 -1.54,-3.31 0.84,-4.17 1.01,-4.34 0.63,-0.62 1.39,-0.83 2.3,-0.62 0.64,0.15 0.9,0.39 1.23,0.79 0.34,0.41 0.54,0.99 0.43,1.69 -0.12,0.71 -0.46,0.89 -0.8,1.27 -0.06,0.81 -0.1,1.71 -0.34,2.43 -0.39,1.16 -0.77,1.03 -1.42,1.15l-0.05 0.55c0.57,0.12 1.19,0.47 1.64,0.76 0.28,0.18 0.46,0.33 0.7,0.5 0.29,0.2 0.45,0.3 0.63,0.57 0.63,0.42 0.93,1.12 1.3,2.06 0.34,0.66 0.72,1.26 1.09,1.88 0.5,0.83 2.95,4.97 3.4,5.37 0.5,0.21 4.76,0.04 5.65,0.04 1.88,-0 3.77,-0.01 5.65,-0.04 -0.17,0.97 -0.5,2.02 -0.74,3l-1.45 5.86c-0.15,0.63 -0.51,2.45 -0.72,2.88 -0.3,0.15 -1.12,0.11 -1.32,0.31 0.08,0.12 0.44,0.37 0.57,0.48 0.79,0.64 0.97,0.9 1.63,1.78 2.11,2.86 10.8,15.15 11.88,17.85 0.15,0.37 0.25,0.58 0,0.85 -0.16,0.17 -0.44,0.4 -0.63,0.51 0.08,0.07 -0,0.03 0.14,0.07l3.88 0.32c0.22,0.03 0.42,0.06 0.64,0.11 0.27,0.06 0.43,0.08 0.56,0.26 -0.34,0.68 -5.83,2.76 -7.1,3.12 -0.61,0.17 -0.88,0.12 -1.13,-0.4 -0.17,-0.36 -0.19,-0.72 -0.49,-1.38 -0.25,0.15 -0.92,0.46 -1.18,0.32 -0.16,-0.08 -0.61,-0.75 -0.75,-0.92 -0.09,0.92 -0.13,1.74 -0.27,2.65 -0.13,0.83 -0.4,1.73 -0.49,2.48 0.31,0.26 1.6,0.97 2.24,1.43 0.27,0.2 0.58,0.35 0.6,0.67 -0.53,0.29 -2.83,0.05 -3.56,0.04 -0.36,1.53 -1.88,4.04 -2.58,5.1 -0.46,0.7 -1.02,1.37 -1.56,2.2 -2.16,3.3 -3.63,6.73 -4.65,10.78 -0.23,0.92 -0.61,2.26 -0.75,3.14 0.61,-0.03 0.86,0.32 0.88,0.97 1.92,0 8.5,-1.11 10.32,-1.53 2.46,-0.57 3.91,-0.95 6.35,-1.64 0.53,-0.15 0.99,-0.3 1.52,-0.47l7.38 -2.79c1.35,-0.61 2.8,-1.26 4.09,-1.94l3.97 -2.14c1.53,-0.86 3.52,-2.17 4.94,-3.23 2.35,-1.76 3.5,-2.83 5.39,-4.97 0.58,-0.65 1.32,-1.65 1.8,-2.4 2.11,-3.31 3.44,-6.78 4.04,-10.86 0.11,-0.78 0.19,-1.55 0.22,-2.31l0 -2.35c-0.21,-4.34 -1.55,-8.31 -3.4,-11.1 -0.81,-1.22 -1.86,-2.45 -3.07,-3.16 -4.42,-2.57 -7.74,0.58 -12.8,-3.23 -3.71,-2.8 -5.64,-6.9 -7.73,-11.14l-2.14 -4.2c-0.72,-1.37 -1.52,-2.64 -2.31,-3.95 -0.27,-0.45 -0.54,-0.87 -0.83,-1.31 -0.58,-0.87 -1.1,-1.68 -1.71,-2.51l-5.53 -6.99 -3.54 -3.65c-0.12,-0.13 -0.14,-0.14 -0.27,-0.25l-5.88 -4.96c-2.45,-1.84 -6.35,-4.16 -9.07,-5.25 -0.5,-0.2 -0.91,-0.39 -1.42,-0.58 -1.54,-0.58 -3,-1.03 -4.63,-1.39 -0.57,-0.13 -1.05,-0.22 -1.64,-0.33 -2.14,-0.39 -3.4,-0.38 -5.53,-0.38 -3.92,0 -7.59,1.17 -10.74,3.3 -1.24,0.84 -1.73,1.27 -2.86,2.3 -0.84,0.76 -1.29,1.34 -2.02,2.16l-1.36 1.81c-1.08,1.48 -2.23,3.68 -3,5.42l-1.9 4.52z"/>
   <path class="fil1" d="M48.42 99.52c1.14,0.43 2.51,0.61 3.74,0.91l0.18 0.03 -0.42 -14.11 -0.13 -4.64 -0.41 -0.1c-0.13,-0.01 -0.26,-0.03 -0.39,-0.04 -1.52,-0.19 -3.41,-0.69 -4.39,-1.94 -0.47,-0.6 -1.01,-1.55 -1.14,-2.67 -0.41,-3.6 3.16,-5.24 5.87,-2.67 0.98,0.93 1.5,2.44 1.73,3.99 0.08,0.53 0.09,1.27 0.19,1.75 1.01,0.11 2.21,0.11 3.24,0.13 0.84,0.01 2.48,0.1 3.25,-0.04 0.19,-2.49 0.48,-4.49 1.68,-5.89 1.3,-1.53 3.69,-1.81 4.78,-0.33 1.2,1.61 1,4.21 -0.18,5.66 -1.15,1.42 -2.6,2 -4.87,2.22 -0.17,2.72 -0.11,5.38 -0.18,8.1 -0.05,1.13 0.12,10.36 0.32,10.8 0.75,0.11 3.09,-0.48 3.93,-0.64 0.13,-0.88 0.52,-2.22 0.75,-3.14 1.02,-4.05 2.49,-7.48 4.65,-10.78 0.54,-0.83 1.1,-1.5 1.56,-2.2 0.69,-1.06 2.21,-3.57 2.58,-5.1 -1.2,-0.17 -2.45,-0.2 -3.68,-0.39 -1.98,-0.31 -0.91,-0.77 -1.28,-2.92 -1.12,0.07 -1.16,-0.11 -1.55,-1.05 -0.71,-1.73 -1.43,-4.11 -2.01,-5.92 -0.85,-2.69 -1.67,-5.39 -2.54,-8.04 -0.22,-0.67 -0.45,-1.35 -0.7,-2.01 -0.45,-1.2 -0.46,-1.36 -1.13,-1.46 -3.03,-0.42 -9.88,-1.32 -12.55,-2.19 0.04,0.16 -0.01,0.17 -0.2,0.34 -1.22,1.13 -1.65,1.72 -2.7,2.96 -1.76,2.1 -3.79,6.42 -4.86,9.04l-1.06 -1.12c-1.35,-1.29 -1.2,-1.23 -0.86,-2.26 0.75,-2.27 1.84,-3.89 3.25,-5.48 0.93,-1.05 1.86,-1.92 2.97,-2.79l1.55 -1.21c0.01,-0.03 0.02,-0.03 0.03,-0.04 -0.42,-0.26 -0.97,-0.41 -1.41,-0.73 -0.58,-0.41 -0.52,-0.7 -0.9,-1.32 -0.31,0.15 -0.86,0.69 -1.13,0.94l-1.02 1.03c-1.95,2 -3.67,4.8 -4.74,7.75 -2.45,6.8 -1.83,14.63 1.85,20.8 0.68,1.14 1.2,1.73 1.67,2.48 0.52,0.84 1.05,1.68 1.58,2.58 1.39,2.37 4.77,8.2 5.07,11.72z"/>
   <path class="fil2" d="M44.54 49.37c-0.03,0.51 0.1,1.05 0.21,1.54 0.11,0.46 0.31,0.92 0.39,1.32 0.38,0.62 0.32,0.91 0.9,1.32 0.45,0.32 0.99,0.46 1.41,0.73l1.88 0.57c2.66,0.87 9.52,1.77 12.55,2.19 0.67,0.09 0.68,0.25 1.13,1.46 0.25,0.66 0.48,1.33 0.7,2.01 0.87,2.66 1.7,5.36 2.54,8.04 0.57,1.81 1.29,4.19 2.01,5.92 0.39,0.94 0.43,1.12 1.55,1.05 1.15,-0.1 1.99,-0.4 3.03,-0.7 2.01,-0.74 1.94,-0.59 1.2,-3.78 -0.2,-0.85 -0.39,-1.64 -0.61,-2.46 -0.19,-0.72 -0.53,-1.76 -0.64,-2.46l3.46 5.45c0.14,0.17 0.58,0.83 0.75,0.92 0.26,0.14 0.93,-0.18 1.18,-0.32 1.1,-0.4 2.67,-1.48 3.49,-2.11 0.19,-0.11 0.47,-0.35 0.63,-0.51 0.25,-0.26 0.15,-0.48 -0,-0.85 -1.08,-2.7 -9.76,-14.99 -11.88,-17.85 -0.65,-0.88 -0.84,-1.14 -1.63,-1.78 -0.14,-0.11 -0.49,-0.36 -0.57,-0.48 -0.48,-0.1 -3.12,0.21 -3.88,0.25 -1.32,0.08 -4.79,0.27 -6.07,0.07 -0.33,-0.05 -4,-1.73 -4.53,-1.82 -0.01,0.01 -0.03,0.03 -0.04,0.03l-1.01 0.51c-1.85,0.83 -6.74,2.86 -8.15,1.44l0 0.32z"/>
   <path class="fil3" d="M11.13 34.02c0.27,0.27 1.72,5.05 6.77,6.28 2.58,0.63 5.38,0 7.44,-1.64 1.9,-1.52 3.18,-3.55 3.81,-6.13 0.91,-3.75 -0.24,-7.84 -2.53,-10.37 -1.82,-2 -3.67,-2.42 -3.86,-2.66 -0.93,-0.08 -0.75,-0.41 -2.98,-0.41 -2.31,-0 -4.35,0.95 -6.03,2.54 -0.4,0.38 -0.57,0.64 -0.85,0.95 -1.05,1.17 -1.89,3.01 -2.28,4.93 -0.73,3.55 0.47,6.05 0.51,6.5z"/>
   <path class="fil3" d="M41.99 40.92c0.11,0 0.93,0.68 1.1,0.81 1.55,1.17 4.51,2.69 6.26,3.51 0.45,0.21 2.37,1.14 2.71,1.17 -2.4,0.23 -6.58,-0.68 -8.86,-2.15 -0.34,-0.22 -0.67,-0.53 -1,-0.7 0.17,1.52 0.95,3.24 1.65,4.47l0.59 0.91c0.07,0.2 0,0.24 0.1,0.43l0 -0.32c1.41,1.42 6.29,-0.61 8.15,-1.44l1.01 -0.51c0.01,-0.01 0.03,-0.02 0.04,-0.03 -0.06,-0.04 -0.11,-0.06 -0.17,-0.1l-0.17 -0.13c0.27,0.02 0.49,0.09 0.75,0.1 0.32,0 0.38,-0.14 0.54,-0.27 0.26,-0.81 0.7,-1.64 0.99,-2.54 0.15,-0.62 0.18,-1.25 -0.26,-1.62 -1.03,-0.85 -4.81,-2.88 -6.2,-3.72 -0.44,-0.27 -0.81,-0.48 -1.25,-0.77 -0.2,-0.13 -0.42,-0.29 -0.59,-0.43 -0.22,-0.18 -0.26,-0.36 -0.49,-0.5 -0.84,0.13 -1.54,1.51 -2.18,1.68 0.05,-0.87 0.81,-1.58 1.16,-1.98 0.81,-0.93 0.8,-0.46 0.94,-2.2l0.33 -4.56c0.02,-0.25 0.04,-0.49 0.06,-0.74l0.13 -0.66c0.08,2.18 -0.17,4.42 -0.07,6.65 0.02,0.48 0.02,1.12 0.32,1.34 0.23,0.17 0.67,0.39 0.96,0.55 1.79,1.01 6.42,3.52 7.63,4.76 0.82,0.84 0.21,0.95 -0.16,2.17 0.34,-0 0.69,-0.01 1.02,0.08 0.39,0.11 0.39,0.26 0.64,0.51 0.3,-0.2 0.41,-1.17 0.37,-1.39 0,-0.07 -0.01,-0.18 0.01,-0.25 0.08,-0.27 -0.06,-0.08 0.14,-0.24 -0.14,-0.15 -0.12,-0.14 -0.12,-0.44l-0.2 -3.11c-0.23,-2.25 -0.55,-4.49 -0.87,-6.72 -0.08,-0.55 -0.16,-1.09 -0.24,-1.65l-0.17 -1.46c0.03,-0.21 -0.03,-0.04 0.05,-0.14 -0.37,-0.94 -0.67,-1.63 -1.3,-2.06 -1.5,0.82 -3.03,1.58 -5.04,1.13 -0.84,-0.19 -1.61,-0.58 -2.25,-1.01 -0.56,-0.38 -1.44,-1.09 -1.71,-1.54 -3.57,1.7 -4.68,6.68 -5.05,10.69 -0.08,0.84 -0.12,1.68 -0.15,2.53 -0.04,1.39 0.47,1.14 0.85,1.91z"/>
   <path class="fil4" d="M58.18 42.8c-0.2,0.16 -0.07,-0.03 -0.14,0.24 -0.02,0.07 -0.01,0.18 -0.01,0.25 0.27,0.02 0.65,0.22 0.88,0.33l-0.43 2.25 -0.31 -0.01c0.13,0.75 0.26,0.89 -0.12,1.51 -0.23,0.38 -0.46,0.82 -1,0.56 -0.84,-0.4 -1.62,-0.85 -2.37,-1.28 -0.16,0.13 -0.21,0.28 -0.54,0.27 -0.26,-0 -0.48,-0.07 -0.75,-0.1l0.17 0.13c0.06,0.04 0.11,0.06 0.17,0.1 0.53,0.09 4.2,1.77 4.53,1.82 1.28,0.2 4.75,0.01 6.07,-0.07 0.76,-0.04 3.4,-0.36 3.88,-0.25 0.2,-0.21 1.02,-0.16 1.32,-0.31 0.21,-0.42 0.57,-2.25 0.72,-2.88l1.45 -5.86c0.24,-0.98 0.57,-2.02 0.74,-3 -1.88,0.03 -3.77,0.04 -5.65,0.04 -0.89,0 -5.15,0.17 -5.65,-0.04 -0.08,0.08 -0.01,0.04 -0.16,0.07l-0.73 0.02c-0.1,0.77 -1.09,6.2 -1.27,6.59l-0.79 -0.4z"/>
   <path class="fil5" d="M51.92 86.35l1.49 0.85c0.1,-0.35 -0.08,-4.62 -0.1,-5.44 1.04,0.03 2.08,0.08 3.12,0.1 1.05,0.02 2.16,-0.05 3.19,-0 0.02,1.2 -0.11,2.59 -0.13,3.8 -0.02,0.87 0.07,3.31 -0.04,3.95l1.52 0.26c0.06,-2.72 0.01,-5.38 0.18,-8.1 2.27,-0.22 3.72,-0.8 4.87,-2.22 1.18,-1.45 1.38,-4.05 0.18,-5.66 -1.1,-1.48 -3.49,-1.19 -4.78,0.33 -1.2,1.41 -1.49,3.4 -1.68,5.89 -0.76,0.14 -2.41,0.05 -3.25,0.04 -1.03,-0.02 -2.22,-0.02 -3.24,-0.13 -0.1,-0.49 -0.11,-1.22 -0.19,-1.75 -0.24,-1.55 -0.75,-3.06 -1.73,-3.99 -2.72,-2.57 -6.29,-0.93 -5.87,2.67 0.13,1.12 0.67,2.07 1.14,2.67 0.98,1.25 2.87,1.75 4.39,1.94 0.13,0.02 0.26,0.03 0.39,0.04l0.41 0.1 0.13 4.64z"/>
   <path class="fil4" d="M14.82 36.59c1.27,-0.36 3.16,-1.8 4.01,-2.54 0.58,-0.51 1.2,-1.13 1.64,-1.7 0.27,-0.35 1.3,-1.6 1.38,-2.09l-2.29 -0.01 0.01 -7.11 0.75 -0.05c0.1,0.09 0.15,-0.18 0.14,0.71l-0 5.46 1.82 0.01c0.26,-0.01 0.24,-0.04 0.35,-0.29 0.27,-0.62 0.57,-1.28 0.8,-1.97 0.26,-0.76 1.13,-3.81 0.88,-4.64 -0.4,-0.47 -1.87,-1.09 -2.6,-1.27 -3.2,-0.81 -6.28,0.66 -8.08,3.33 -1.1,1.62 -1.86,4.02 -1.52,6.68 0.21,1.66 0.85,3.23 1.75,4.44 0.19,0.25 0.25,0.32 0.47,0.56 0.11,0.12 0.12,0.15 0.23,0.29 0.13,0.15 0.12,0.16 0.28,0.2z"/>
   <path class="fil2" d="M50.87 111.6c0.5,0.26 1.81,2.73 6.11,2.66 4.49,-0.08 5.56,-2.13 6.29,-2.55 0.24,-0.42 0.47,-0.58 0.85,-1.29 0.8,-1.49 1.33,-3.5 1.33,-5.4 -0.66,0.09 -1.35,0.27 -2.03,0.39 -2.2,0.37 -4.37,0.53 -6.62,0.46 -4.01,-0.11 -4.78,-0.57 -8.29,-1.27 0,2.07 0.95,4.93 2.12,6.63 0.11,0.15 0.16,0.19 0.24,0.37z"/>
   <path class="fil1" d="M53.41 87.2l0.06 -0.04c-0.08,0.73 0.15,5.55 0.16,6.84l0.2 6.67c2.05,0.2 3.87,0.27 5.94,0.18 -0.08,-1.87 -0.13,-3.7 -0.19,-5.56 -0.03,-0.94 -0.04,-1.86 -0.06,-2.8 -0.02,-0.84 0.04,-2.08 -0.06,-2.87 0.11,-0.64 0.03,-3.08 0.04,-3.95 0.02,-1.21 0.15,-2.61 0.13,-3.8 -1.03,-0.05 -2.15,0.02 -3.19,0 -1.05,-0.02 -2.08,-0.07 -3.12,-0.1 0.02,0.82 0.2,5.09 0.1,5.44z"/>
   <path class="fil6" d="M20.31 23.1l0.04 6.27c0.56,0.05 2.09,-0.1 2.48,0.06l-0.01 0.83 -0.98 0c-0.08,0.49 -1.11,1.74 -1.38,2.09 -0.44,0.57 -1.06,1.19 -1.64,1.7 -0.85,0.74 -2.74,2.18 -4.01,2.54l0.25 0.3c1.65,1.48 3.92,2.14 6.04,1.79 2.43,-0.41 4.17,-1.96 5.19,-3.49 1.96,-2.95 2.15,-7.25 0.14,-10.5 -0.45,-0.72 -1.43,-1.95 -2.15,-2.31 0.25,0.83 -0.62,3.88 -0.88,4.64 -0.23,0.69 -0.53,1.34 -0.8,1.97 -0.11,0.24 -0.09,0.28 -0.35,0.29l-1.82 -0.01 0 -5.46c0.01,-0.89 -0.04,-0.61 -0.14,-0.71z"/>
   <path class="fil0" d="M63.27 111.72c-0.73,0.42 -1.8,2.47 -6.29,2.55 -4.3,0.07 -5.61,-2.4 -6.11,-2.66 -0.14,0.06 -1.09,0.1 -1.37,0.14 -0.48,0.08 -8.44,0.9 -6.14,2.63 0.76,0.57 2.71,0.96 3.66,1.13 1.34,0.23 4.41,0.58 5.72,0.57 0.49,-0 0.89,0.06 1.42,0.07l0.11 0 9.05 -0.28c1.5,-0.13 5.39,-0.7 6.43,-1.55 0.42,-0.35 0.39,-0.76 -0.04,-1.08 -1.05,-0.79 -3.68,-1.16 -5.02,-1.36 -0.24,-0.04 -0.51,-0.07 -0.71,-0.09 -0.28,-0.03 -0.49,-0.08 -0.72,-0.07z"/>
   <path class="fil7" d="M49.33 54.83l-1.88 -0.57c-0.01,0.02 -0.03,0.02 -0.03,0.04l-1.55 1.21c-1.11,0.87 -2.04,1.75 -2.97,2.79 -1.41,1.59 -2.49,3.2 -3.25,5.48 -0.34,1.03 -0.49,0.97 0.86,2.26l1.06 1.12c1.07,-2.62 3.1,-6.94 4.86,-9.04 1.04,-1.24 1.48,-1.83 2.7,-2.96 0.19,-0.18 0.24,-0.19 0.2,-0.34z"/>
   <path class="fil8" d="M50.41 23.17c-0.06,0.34 -0.1,0.67 -0.15,1.02 -0.05,0.39 -0.05,0.94 -0.22,0.99 -1.08,-0 -2.89,0.04 -3.69,0.6 0.27,0.45 1.15,1.16 1.71,1.54 0.63,0.43 1.41,0.83 2.25,1.01 2.01,0.45 3.54,-0.31 5.04,-1.13 -0.18,-0.28 -0.34,-0.37 -0.63,-0.57 -0.24,-0.17 -0.42,-0.32 -0.7,-0.5 -0.45,-0.29 -1.07,-0.64 -1.64,-0.76l0.05 -0.55c0.65,-0.12 1.03,0.01 1.42,-1.15 0.24,-0.72 0.29,-1.62 0.34,-2.43 -0.08,-0.47 -0.16,-0.76 -0.46,-1.02 -0.09,0.17 -0.06,0.31 -0.06,0.51 -0.28,-0.49 -1.15,-0.98 -1.91,-0.74 -0.13,0.23 -0.12,0.38 -0.18,0.63 -0.22,-0.11 0.02,0.01 -0.15,-0.09l-0.08 -0.05c-0.2,-0.11 -0.36,-0.04 -0.45,0.26 -0.09,0.29 -0.04,0.52 0.13,0.72l0.14 0.15c-0.19,0.6 -0.51,1.08 -0.74,1.55z"/>
   <path class="fil9" d="M48.52 104.61c3.51,0.7 4.28,1.15 8.29,1.27 2.25,0.06 4.41,-0.09 6.62,-0.46 0.68,-0.12 1.37,-0.3 2.03,-0.39 0.37,-0.07 0.65,-0.33 0.67,-0.81 0.03,-0.56 -0.26,-0.8 -0.67,-0.91 -0.64,0.05 -1.42,0.28 -2.07,0.4 -3.57,0.63 -7.53,0.64 -11.1,0.02 -0.7,-0.12 -3.4,-0.66 -3.85,-0.93 -1.3,0 -1.06,1.26 -0.6,1.59 0.21,0.15 0.46,0.15 0.68,0.24z"/>
   <path class="fil9" d="M47.51 100.6c0.13,0.43 0.4,0.61 0.89,0.7 0.58,0.1 1.28,0.33 1.88,0.47 0.67,0.15 1.31,0.27 2.01,0.39 3.64,0.61 7.39,0.6 11.03,-0.01 0.62,-0.1 1.46,-0.34 2.02,-0.37 0.46,-0.1 0.69,-0.28 0.78,-0.77 -0.01,-0.65 -0.27,-0.99 -0.88,-0.97 -0.85,0.16 -3.19,0.74 -3.93,0.64 -0.39,0.17 -1.05,0.14 -1.53,0.16 -2.08,0.09 -3.9,0.03 -5.94,-0.18l-1.67 -0.24c-1.23,-0.3 -2.6,-0.48 -3.74,-0.91 -0.69,-0.04 -0.95,0.31 -0.92,1.08z"/>
   <path class="fil2" d="M48.43 102.78c0.45,0.28 3.16,0.81 3.85,0.93 3.57,0.62 7.52,0.62 11.1,-0.02 0.65,-0.12 1.43,-0.35 2.07,-0.4 0,-0.52 -0.12,-1.02 -0.12,-1.52 -0.56,0.04 -1.4,0.27 -2.02,0.37 -3.63,0.6 -7.39,0.62 -11.03,0.01 -0.7,-0.12 -1.34,-0.24 -2.01,-0.39 -0.6,-0.14 -1.3,-0.37 -1.88,-0.47 0,0.48 -0.06,1.03 0.04,1.49z"/>
   <path class="fil2" d="M58.18 42.8l0.79 0.4c0.18,-0.39 1.17,-5.82 1.27,-6.59l0.73 -0.02c0.15,-0.03 0.08,0.01 0.16,-0.07 -0.46,-0.4 -2.9,-4.54 -3.4,-5.37 -0.38,-0.62 -0.75,-1.22 -1.09,-1.88 -0.07,0.11 -0.02,-0.06 -0.05,0.14l0.17 1.46c0.08,0.56 0.16,1.1 0.24,1.65 0.32,2.23 0.64,4.48 0.87,6.72l0.2 3.11c0.01,0.3 -0.01,0.29 0.12,0.44z"/>
   <path class="fil3" d="M69.81 75.5c0.37,2.16 -0.7,2.62 1.28,2.92 1.23,0.19 2.47,0.22 3.68,0.39 0.73,0.01 3.03,0.25 3.56,-0.04 -0.02,-0.32 -0.33,-0.47 -0.6,-0.67 -0.64,-0.47 -1.93,-1.17 -2.24,-1.43 -0.4,-0.15 -1.03,-0.58 -1.45,-0.82 -0.47,-0.26 -1.13,-0.43 -1.19,-1.06 -1.03,0.3 -1.87,0.6 -3.03,0.7z"/>
   <path class="fil10" d="M52.16 100.43l1.67 0.24 -0.2 -6.67c-0.02,-1.29 -0.24,-6.11 -0.16,-6.84l-0.06 0.04 -1.49 -0.85 0.42 14.11 -0.18 -0.03z"/>
   <path class="fil3" d="M78.16 72.13c0.29,0.66 0.32,1.02 0.49,1.38 0.25,0.53 0.51,0.58 1.13,0.4 1.27,-0.36 6.75,-2.44 7.1,-3.12 -0.13,-0.18 -0.29,-0.2 -0.56,-0.26 -0.22,-0.05 -0.42,-0.08 -0.64,-0.11l-3.88 -0.32c-0.14,-0.04 -0.05,-0 -0.14,-0.07 -0.82,0.63 -2.4,1.71 -3.49,2.11z"/>
   <path class="fil1" d="M51.73 79.93c-0.04,-1.49 -0.42,-3.12 -1.08,-4.04 -0.56,-0.8 -2.28,-1.77 -3.3,-0.68 -0.91,0.96 -0.73,4.47 4.38,4.72z"/>
   <path class="fil2" d="M55.67 44.11l0.33 -0.03c0.37,-1.23 0.98,-1.33 0.16,-2.17 -1.21,-1.24 -5.85,-3.75 -7.63,-4.76 -0.29,-0.16 -0.73,-0.38 -0.96,-0.55 -0.3,-0.22 -0.3,-0.86 -0.32,-1.34 -0.1,-2.23 0.15,-4.47 0.07,-6.65l-0.13 0.66c-0.02,0.25 -0.04,0.48 -0.06,0.74l-0.33 4.56c-0.14,1.74 -0.14,1.27 -0.94,2.2 -0.35,0.4 -1.11,1.11 -1.16,1.98 0.64,-0.17 1.35,-1.54 2.18,-1.68 0.23,0.15 0.27,0.32 0.49,0.5 0.17,0.14 0.39,0.29 0.59,0.43 0.44,0.29 0.81,0.51 1.25,0.77 1.39,0.85 5.17,2.87 6.2,3.72 0.45,0.37 0.41,1 0.26,1.62z"/>
   <path class="fil1" d="M61.26 80.03c0.95,0.18 2.83,-0.71 3.35,-1.25 0.39,-0.41 0.69,-0.83 0.84,-1.64 0.37,-1.94 -0.82,-2.97 -2.04,-2.37 -0.62,0.31 -0.94,0.61 -1.26,1.16 -0.59,1.03 -0.84,2.66 -0.89,4.1z"/>
   <path class="fil10" d="M59.78 100.84c0.47,-0.02 1.13,0.01 1.53,-0.16 -0.2,-0.44 -0.38,-9.67 -0.32,-10.8l-1.52 -0.26c0.09,0.79 0.04,2.03 0.06,2.87 0.02,0.94 0.03,1.86 0.06,2.8 0.06,1.86 0.11,3.7 0.19,5.56z"/>
   <path class="fil2" d="M42.2 43.56c0.33,0.17 0.66,0.48 1,0.7 2.28,1.47 6.46,2.38 8.86,2.15 -0.34,-0.03 -2.26,-0.96 -2.71,-1.17 -1.75,-0.82 -4.71,-2.34 -6.26,-3.51 -0.17,-0.13 -0.99,-0.8 -1.1,-0.81 0.05,0.83 -0.04,1.89 0.21,2.64z"/>
   <path class="fil1" d="M50.41 23.17c0.23,-0.47 0.55,-0.95 0.74,-1.55l-0.14 -0.15c-0.16,-0.2 -0.22,-0.44 -0.13,-0.72 0.09,-0.3 0.25,-0.37 0.45,-0.26l0.08 0.05c0.17,0.11 -0.08,-0.02 0.15,0.09 0.06,-0.26 0.05,-0.41 0.18,-0.63 0.76,-0.24 1.64,0.25 1.91,0.74 0,-0.2 -0.03,-0.34 0.06,-0.51 0.3,0.26 0.38,0.55 0.46,1.02 0.35,-0.38 0.69,-0.55 0.8,-1.27 0.12,-0.71 -0.08,-1.29 -0.43,-1.69 -0.33,-0.4 -0.6,-0.64 -1.23,-0.79 -0.91,-0.22 -1.66,-0 -2.3,0.62 -0.17,0.17 -2.55,1.03 -1.01,4.34 0.29,0.63 0.32,0.24 0.39,0.72z"/>
   <path class="fil1" d="M72.83 74.8c0.06,0.63 0.73,0.8 1.19,1.06 0.42,0.23 1.05,0.66 1.45,0.82 0.1,-0.75 0.37,-1.65 0.49,-2.48 0.14,-0.91 0.18,-1.73 0.27,-2.65l-3.46 -5.45c0.12,0.7 0.45,1.74 0.64,2.46 0.22,0.82 0.41,1.61 0.61,2.46 0.74,3.19 0.81,3.04 -1.2,3.78z"/>
   <path class="fil8" d="M55.67 44.11c-0.29,0.9 -0.74,1.73 -0.99,2.54 0.75,0.43 1.53,0.88 2.37,1.28 0.54,0.26 0.77,-0.18 1,-0.56 0.38,-0.62 0.25,-0.76 0.12,-1.51 -0.08,-0.16 -0.46,-1.05 -0.51,-1.19 -0.25,-0.25 -0.25,-0.41 -0.64,-0.51 -0.33,-0.09 -0.68,-0.08 -1.02,-0.08l-0.33 0.03z"/>
   <path class="fil2" d="M21.84 30.26l0.98 -0 0.01 -0.83c-0.39,-0.16 -1.92,-0.01 -2.48,-0.06l-0.04 -6.27 -0.75 0.05 -0.01 7.11 2.29 0.01z"/>
   <path class="fil5" d="M65.2 41.36c-1.18,0.48 -1.01,2.63 0.3,2.26 1.1,-0.31 1.02,-2.79 -0.3,-2.26z"/>
   <path class="fil2" d="M57.66 44.68c0.05,0.14 0.43,1.04 0.51,1.19l0.31 0.01 0.43 -2.25c-0.23,-0.11 -0.62,-0.31 -0.88,-0.33 0.03,0.21 -0.07,1.19 -0.37,1.39z"/>
  </g>
 </g>
</svg>
