<?xml version="1.0" encoding="UTF-8"?>
<!DOCTYPE svg PUBLIC "-//W3C//DTD SVG 1.0//EN" "http://www.w3.org/TR/2001/REC-SVG-20010904/DTD/svg10.dtd">
<!-- Creator: CorelDRAW (Versión de evaluación) -->
<svg xmlns="http://www.w3.org/2000/svg" xml:space="preserve" width="52.9583mm" height="14.2513mm" version="1.0" style="shape-rendering:geometricPrecision; text-rendering:geometricPrecision; image-rendering:optimizeQuality; fill-rule:evenodd; clip-rule:evenodd"
viewBox="0 0 5251.83 1413.29"
 xmlns:xlink="http://www.w3.org/1999/xlink"
 xmlns:xodm="http://www.corel.com/coreldraw/odm/2003">
 <defs>
  <style type="text/css">
   <![CDATA[
    .fil5 {fill:none}
    .fil3 {fill:#00335B}
    .fil4 {fill:#010232}
    .fil2 {fill:#51447A}
    .fil1 {fill:gray}
    .fil0 {fill:#999999}
   ]]>
  </style>
   <clipPath id="id0">
    <path d="M-0 0l5251.83 0 0 1413.29 -5251.83 0 0 -1413.29z"/>
   </clipPath>
 </defs>
 <g id="Capa_x0020_1">
  <metadata id="CorelCorpID_0Corel-Layer"/>
  <g>
  </g>
  <g style="clip-path:url(#id0)">
   <g id="_401082552">
    <path class="fil0" d="M711.76 13.94c378.42,0 685.19,306.77 685.19,685.19 0,378.42 -306.77,685.19 -685.19,685.19 -378.42,0 -685.19,-306.77 -685.19,-685.19 0,-378.42 306.77,-685.19 685.19,-685.19zm4330.78 925.48c-25.53,0 -49.31,-5.06 -71.42,-15.07 -22.04,-10.12 -41.48,-24 -58.35,-41.55 -16.77,-17.64 -29.85,-38.17 -39.25,-61.57 -9.5,-23.5 -14.2,-48.59 -14.2,-75.26 0,-26.68 4.7,-51.77 14.2,-75.27 9.4,-23.4 22.48,-43.92 39.25,-61.57 16.87,-17.55 36.32,-31.44 58.35,-41.55 22.11,-10.02 45.9,-15.07 71.42,-15.07 25.45,0 49.23,5.06 71.25,15.07 22.11,10.02 41.56,23.8 58.34,41.55 16.68,17.65 29.77,38.17 39.26,61.57 9.49,23.5 14.29,48.59 14.29,75.27 0,26.67 -4.8,51.76 -14.29,75.26 -9.49,23.4 -22.58,43.93 -39.26,61.67 -16.78,17.65 -36.23,31.54 -58.34,41.55 -22.03,10.02 -45.81,14.97 -71.25,14.97zm0 -80.02c14.57,0 28.03,-2.98 40.47,-8.83 12.53,-5.95 23.5,-14.08 32.99,-24.3 9.48,-10.41 16.86,-22.41 22.11,-36 5.26,-13.78 7.92,-28.56 7.92,-44.32 0,-15.77 -2.67,-30.54 -7.92,-44.13 -5.26,-13.78 -12.63,-25.78 -22.11,-36.1 -9.49,-10.31 -20.46,-18.45 -32.99,-24.4 -12.45,-5.85 -25.9,-8.82 -40.47,-8.82 -14.66,0 -28.29,2.97 -40.82,8.82 -12.45,5.95 -23.41,14.08 -32.91,24.4 -9.49,10.31 -16.87,22.31 -22.11,36.1 -5.26,13.59 -7.83,28.36 -7.83,44.13 0,15.76 2.58,30.53 7.83,44.32 5.25,13.59 12.62,25.59 22.11,36 9.5,10.21 20.47,18.35 32.91,24.3 12.53,5.85 26.16,8.83 40.82,8.83zm-318.25 72.48l0 -371.85 79.08 0 0 371.85 -79.08 0zm-362.77 0l0 -371.85 121.85 0c27.27,0 52.16,4.76 74.65,14.38 22.58,9.62 42.12,22.81 58.61,39.77 16.5,16.96 29.23,36.78 38.26,59.29 8.94,22.51 13.46,46.71 13.46,72.49 0,25.77 -4.52,49.97 -13.46,72.48 -8.95,22.51 -21.67,42.35 -38.26,59.29 -16.49,16.96 -35.94,30.15 -58.43,39.77 -22.49,9.62 -47.46,14.38 -74.83,14.38l-121.85 0zm74.47 -75.26l41.2 0c17.87,0 33.73,-2.88 47.55,-8.53 13.73,-5.75 25.45,-13.69 34.94,-23.7 9.49,-10.21 16.78,-21.92 21.76,-35.3 4.88,-13.39 7.37,-27.77 7.37,-43.13 0,-15.47 -2.49,-29.95 -7.37,-43.44 -4.98,-13.49 -12.27,-25.29 -21.76,-35.3 -9.49,-10.02 -21.2,-17.85 -34.94,-23.5 -13.82,-5.75 -29.68,-8.63 -47.55,-8.63l-41.2 0 0 221.53zm-264.24 83.79c-25.07,0 -47.37,-5.36 -66.82,-16.07 -19.45,-10.81 -34.74,-26.18 -45.9,-46.31 -11.16,-20.32 -16.68,-44.72 -16.68,-73.28l0 -244.73 78.7 0 0 239.28c0,12.59 2.21,23.5 6.55,32.92 4.42,9.42 10.51,16.56 18.26,21.62 7.83,4.96 16.87,7.44 26.91,7.44 9.95,0 18.88,-2.38 26.72,-7.24 7.93,-4.96 14.1,-11.9 18.44,-20.92 4.42,-9.12 6.63,-19.73 6.63,-31.83l0 -241.26 76.41 0 0 243.74c0,28.76 -5.53,53.35 -16.58,73.77 -11.07,20.43 -26.27,36 -45.63,46.81 -19.36,10.71 -41.66,16.07 -67.01,16.07zm-331.99 -8.53l0 -298.37 -81.84 0 0 -73.48 242.59 0 0 73.48 -81.67 0 0 298.37 -79.08 0zm-215.48 8.23c-14.29,0 -28.2,-1.88 -41.76,-5.65 -13.46,-3.77 -25.8,-8.83 -37.04,-15.17 -11.16,-6.45 -20.75,-13.69 -28.67,-21.72l20.09 -88.25c6.73,11.21 14.93,21.22 24.6,29.85 9.68,8.63 20.28,15.47 31.62,20.43 11.34,4.86 22.58,7.34 33.83,7.34 8.67,0 16.05,-1.59 22.04,-4.76 6.17,-3.17 10.87,-7.54 14.19,-13.19 3.31,-5.65 4.97,-11.9 4.97,-18.94 0,-8.33 -1.84,-15.27 -5.52,-20.73 -3.69,-5.55 -8.2,-10.21 -13.46,-13.98 -5.35,-3.77 -10.14,-6.84 -14.47,-9.12l-39.82 -21.22c-13.46,-7.24 -25.72,-15.36 -36.78,-24.39 -11.05,-9.22 -19.9,-20.33 -26.54,-33.42 -6.55,-13.09 -9.86,-28.96 -9.86,-47.7 0,-16.16 2.58,-30.73 7.83,-43.92 5.25,-13.19 12.71,-24.49 22.39,-33.92 9.86,-9.42 21.56,-16.76 35.12,-22.02 13.64,-5.26 28.94,-7.83 45.9,-7.83 20.19,0 38.53,3.37 54.84,10.12 16.31,6.84 30.14,14.48 41.29,22.91l-19.08 85.77c-7.1,-9.42 -15.21,-17.55 -24.15,-24.4 -8.95,-6.84 -18.26,-12.29 -27.93,-16.15 -9.58,-3.87 -19.08,-5.85 -28.48,-5.85 -7.65,0 -14.19,1.39 -19.45,4.07 -5.26,2.68 -9.31,6.44 -12.17,11.2 -2.77,4.66 -4.15,10.12 -4.15,16.16 0,5.45 1.2,10.41 3.59,14.78 2.49,4.36 5.99,8.33 10.51,11.8 4.7,3.37 10.23,6.84 16.59,10.41l42.02 22.31c8.11,4.26 16.41,9.42 24.89,15.47 8.57,6.15 16.5,13.59 23.97,22.41 7.56,8.72 13.64,18.93 18.16,30.73 4.51,11.8 6.81,25.78 6.81,41.75 0,21.92 -4.79,41.45 -14.28,58.8 -9.5,17.35 -22.96,31.04 -40.19,41.16 -17.24,9.92 -37.68,14.88 -61.47,14.88zm-444.8 -0.69c-25.53,0 -49.3,-5.06 -71.42,-15.07 -22.04,-10.12 -41.48,-24 -58.35,-41.55 -16.77,-17.64 -29.85,-38.17 -39.25,-61.57 -9.5,-23.5 -14.2,-48.59 -14.2,-75.26 0,-26.68 4.7,-51.77 14.2,-75.27 9.4,-23.4 22.48,-43.92 39.25,-61.57 16.87,-17.55 36.32,-31.44 58.35,-41.55 22.12,-10.02 45.9,-15.07 71.42,-15.07 25.45,0 49.23,5.06 71.25,15.07 22.11,10.02 41.56,23.8 58.34,41.55 16.68,17.65 29.77,38.17 39.26,61.57 9.5,23.5 14.29,48.59 14.29,75.27 0,26.67 -4.79,51.76 -14.29,75.26 -9.49,23.4 -22.58,43.93 -39.26,61.67 -16.78,17.65 -36.23,31.54 -58.34,41.55 -22.03,10.02 -45.81,14.97 -71.25,14.97zm0 -80.02c14.57,0 28.03,-2.98 40.47,-8.83 12.53,-5.95 23.5,-14.08 32.99,-24.3 9.49,-10.41 16.86,-22.41 22.11,-36 5.26,-13.78 7.92,-28.56 7.92,-44.32 0,-15.77 -2.67,-30.54 -7.92,-44.13 -5.26,-13.78 -12.62,-25.78 -22.11,-36.1 -9.49,-10.31 -20.46,-18.45 -32.99,-24.4 -12.45,-5.85 -25.9,-8.82 -40.47,-8.82 -14.66,0 -28.29,2.97 -40.82,8.82 -12.45,5.95 -23.41,14.08 -32.91,24.4 -9.49,10.31 -16.87,22.31 -22.11,36.1 -5.26,13.59 -7.83,28.36 -7.83,44.13 0,15.76 2.58,30.53 7.83,44.32 5.25,13.59 12.62,25.59 22.11,36 9.5,10.21 20.47,18.35 32.91,24.3 12.53,5.85 26.16,8.83 40.82,8.83zm-248.58 82.7l-194.47 -211.21 0 201 -72.16 0 0 -382.07 11.42 0 194.38 210.81 0 -200.6 72.25 0 0 382.07 -11.43 0zm-416.4 -10.21l0 -371.85 79.08 0 0 371.85 -79.08 0zm-311.53 0l0 -371.85 112.81 0c25.16,0 46.73,5.36 64.89,16.16 18.16,10.61 32.07,24.99 41.84,42.94 9.78,17.94 14.66,37.77 14.66,59.69 0,12.69 -1.75,24.79 -5.25,36.3 -3.51,11.4 -8.58,21.82 -15.12,31.24 -6.55,9.31 -14.56,17.44 -23.87,24.39l87.47 161.14 -83.32 0 -72.44 -137.84 -47.18 0 0 137.84 -74.48 0zm74.48 -204.07l33.08 0c12.08,0 21.94,-2.38 29.58,-7.24 7.75,-4.86 13.46,-11.11 17.15,-18.74 3.69,-7.64 5.53,-15.57 5.53,-23.7 0,-9.72 -2.22,-18.15 -6.73,-25.39 -4.42,-7.44 -10.51,-13.09 -18.35,-17.16 -7.73,-4.16 -16.76,-6.24 -27.18,-6.24l-33.08 0 0 98.47zm-319.18 204.07l0 -371.85 189.49 0 0 70.21 -115.39 0 0 53.84 90.41 0 0 65.05 -90.41 0 0 110.17 115.39 0 0 72.58 -189.49 0zm-149.78 0l0 -371.85 79.08 0 0 371.85 -79.08 0zm-289.86 0l0 -371.85 110.97 0c23.3,0 43.31,3.77 60,11.21 16.77,7.44 30.42,17.45 40.93,29.95 10.59,12.4 18.43,26.08 23.5,41.05 5.07,14.97 7.55,30.05 7.55,45.32 0,14.97 -2.48,30.05 -7.37,45.02 -4.98,14.97 -12.81,28.75 -23.5,41.15 -10.6,12.4 -24.24,22.31 -40.93,29.75 -16.68,7.44 -36.68,11.21 -60.18,11.21l-36.5 0 0 117.21 -74.47 0zm74.47 -186.32l31.06 0c14.93,0 26.82,-2.78 35.66,-8.43 8.95,-5.75 15.4,-12.99 19.46,-21.72 4.06,-8.83 6.08,-17.95 6.08,-27.57 0,-9.32 -2.02,-18.35 -5.99,-27.17 -3.87,-8.93 -10.32,-16.26 -19.27,-21.92 -8.94,-5.64 -20.91,-8.52 -35.94,-8.52l-31.06 0 0 115.32z"/>
    <circle class="fil1" cx="711.76" cy="699.13" r="631.12"/>
    <path class="fil2" d="M83.31 641.1c12.38,-1.19 24.32,-2.05 35.15,-2.7 41.16,-2.42 66.25,-1.54 99.5,7.71 33.24,9.25 74.62,26.86 111.82,42.05 37.2,15.19 70.22,27.96 107.87,34.56 37.63,6.6 79.9,7.04 122.61,1.32 42.7,-5.72 85.84,-17.61 125.16,-35.26 39.32,-17.65 74.81,-41.09 111.71,-58.96 36.9,-17.88 75.2,-30.21 119.89,-27.34 44.69,2.86 95.76,20.9 132.96,40.94 37.21,20.03 60.54,42.05 95.99,53.2 35.44,11.16 82.98,11.45 125.76,2.76 26.68,-5.43 51.49,-14.36 71.02,-11.64 0.07,3.79 0.15,7.59 0.15,11.4 0,348.56 -282.56,631.12 -631.12,631.12 -348.56,0 -631.12,-282.56 -631.12,-631.12 0,-19.57 0.94,-38.91 2.68,-58.03z"/>
    <path class="fil3" d="M82.72 647.82c19.32,1.1 41.95,4.29 67.43,11.55 47.28,13.48 104.35,40.95 147.4,67.62 43.06,26.68 72.12,52.57 105.93,71.85 33.81,19.29 72.37,31.96 113.85,26.69 41.47,-5.29 85.85,-28.53 126.53,-51.51 40.68,-22.99 77.66,-45.71 142.11,-48.87 64.46,-3.17 156.38,13.2 247.12,14.76 90.74,1.55 180.29,-11.74 243.42,-31.55 26.33,-8.26 48.06,-17.66 66.14,-26.68 0.16,5.8 0.25,11.61 0.25,17.44 0,348.56 -282.56,631.12 -631.12,631.12 -348.56,0 -631.12,-282.56 -631.12,-631.12 0,-17.28 0.72,-34.38 2.08,-51.31z"/>
    <path class="fil4" d="M82.88 752.25c16.21,3.58 33.73,8.31 52.39,13.91 64.35,19.34 142.33,49.14 216.5,74.5 74.18,25.36 144.54,46.28 221.57,58.32 77.02,12.05 160.7,15.21 245.02,1.59 84.31,-13.63 169.27,-44.06 255.07,-77.25 85.8,-33.19 172.47,-69.14 229.49,-108.42 15.24,-10.5 28.37,-21.23 39.78,-30.88 0.12,5.03 0.19,10.07 0.19,15.12 0,348.56 -282.56,631.12 -631.12,631.12 -330.67,0 -601.9,-254.31 -628.88,-578.01z"/>
   </g>
  </g>
  <polygon class="fil5" points="-0,0 5251.83,0 5251.83,1413.29 -0,1413.29 "/>
 </g>
</svg>
